<svg width="119" height="29" viewBox="0 0 119 29" fill="none" xmlns="http://www.w3.org/2000/svg">
<g clip-path="url(#clip0_329_1049)">
<path d="M31.2673 10.2097H43.3143V12.4248H38.5781V24.8795H35.972V12.4248H31.2562V10.2089H31.2664L31.2673 10.2097ZM42.8001 14.2569H45.0271V16.3074H45.0687C45.1427 16.0174 45.2787 15.7376 45.4784 15.4681C45.9055 14.8904 46.4836 14.4426 47.1487 14.1742C47.4865 14.0399 47.8461 13.9696 48.2095 13.9669C48.4815 13.9669 48.6821 13.9772 48.7875 13.9882C48.892 13.9985 48.9966 14.019 49.1122 14.0292V16.2861C48.9416 16.2561 48.7701 16.2319 48.5979 16.2136C48.427 16.1933 48.255 16.183 48.0828 16.1829C47.6833 16.1829 47.3059 16.2656 46.9489 16.4217C46.5919 16.5761 46.2868 16.814 46.025 17.1151C45.7456 17.4518 45.5317 17.838 45.3943 18.2538C45.237 18.7093 45.1631 19.2262 45.1631 19.8172V24.8692H42.7899V14.2569H42.8001ZM60.0253 24.8803H57.6938V23.3996H57.6513C57.3572 23.9387 56.9271 24.3634 56.3491 24.6841C55.7711 25.0048 55.1829 25.1703 54.5845 25.1703C53.1667 25.1703 52.1365 24.8291 51.5075 24.1348C50.8768 23.4414 50.5614 22.3957 50.5614 20.9977V14.2578H52.9355V20.77C52.9355 21.7022 53.114 22.365 53.482 22.748C53.839 23.1309 54.3533 23.328 55.0044 23.328C55.5084 23.328 55.9181 23.2555 56.2539 23.0994C56.5905 22.9441 56.8633 22.7479 57.0631 22.4887C57.273 22.2404 57.4201 21.93 57.5153 21.5777C57.6088 21.2255 57.6513 20.8425 57.6513 20.4288V14.268H60.0253V24.8803ZM64.0688 21.4745C64.1427 22.1569 64.4045 22.6345 64.8567 22.9134C65.3183 23.183 65.8648 23.328 66.5057 23.328C66.7267 23.328 66.9783 23.3066 67.2622 23.2759C67.5453 23.2444 67.8181 23.1719 68.0604 23.0797C68.312 22.9859 68.5109 22.8409 68.6792 22.655C68.8373 22.4673 68.9104 22.2302 68.9002 21.93C68.8988 21.7906 68.8682 21.6531 68.8104 21.5265C68.7525 21.3998 68.6687 21.2868 68.5644 21.1947C68.3536 20.9986 68.0918 20.8536 67.7654 20.729C67.4018 20.6026 67.0297 20.5023 66.6519 20.4288C66.232 20.3461 65.8121 20.2522 65.382 20.1593C64.9487 20.0652 64.5208 19.9476 64.1002 19.807C63.7057 19.6801 63.3337 19.4916 62.9978 19.2483C62.6705 19.0191 62.4036 18.7135 62.22 18.3579C62.0211 17.9954 61.9259 17.5501 61.9259 17.0119C61.9259 16.4319 62.073 15.956 62.3569 15.5619C62.6432 15.1712 63.0129 14.8494 63.4389 14.6203C63.8968 14.3774 64.3889 14.2063 64.8984 14.1128C65.4339 14.0198 65.949 13.9678 66.4318 13.9678C66.9885 13.9678 67.524 14.03 68.0289 14.1443C68.5177 14.2493 68.9837 14.4421 69.4042 14.7132C69.8139 14.9725 70.1497 15.3137 70.4234 15.7282C70.6962 16.1419 70.8645 16.6494 70.9376 17.2397H68.459C68.3434 16.681 68.091 16.298 67.6821 16.1112C67.2724 15.915 66.7998 15.8212 66.2745 15.8212C66.1062 15.8212 65.9065 15.8314 65.6761 15.863C65.4542 15.8926 65.2357 15.9446 65.0242 16.0182C64.8308 16.0897 64.6553 16.2026 64.5099 16.3492C64.4393 16.4257 64.3845 16.5153 64.3484 16.6131C64.3124 16.7109 64.296 16.8148 64.3 16.919C64.3 17.209 64.4045 17.4367 64.6043 17.6124C64.804 17.7881 65.0667 17.9331 65.3922 18.0576C65.7178 18.1719 66.0858 18.2751 66.5057 18.3579C66.9256 18.4406 67.3557 18.5336 67.7977 18.6274C68.2278 18.7204 68.6477 18.8449 69.0685 18.9788C69.4884 19.1136 69.8556 19.3004 70.182 19.5383C70.5075 19.7763 70.7702 20.0663 70.9691 20.4186C71.1688 20.77 71.2742 21.2152 71.2742 21.733C71.2742 22.3641 71.1272 22.893 70.8322 23.3382C70.539 23.7732 70.1607 24.1348 69.6983 24.4044C69.2143 24.6842 68.6898 24.8867 68.1437 25.0048C67.5881 25.1275 67.021 25.1898 66.4522 25.1908C65.8151 25.198 65.1799 25.1214 64.5626 24.963C63.9846 24.8078 63.4806 24.5801 63.0607 24.2807C62.6457 23.9781 62.3045 23.585 62.0628 23.1309C61.8214 22.6755 61.6947 22.1262 61.6743 21.495H64.0688V21.4745ZM71.9041 14.2586H73.7001V11.0686H76.0742V14.2586H78.2162V16.0072H76.075V21.6818C76.075 21.9291 76.0852 22.1372 76.1065 22.3232C76.1269 22.4997 76.1796 22.655 76.2535 22.7787C76.3339 22.9086 76.4559 23.0073 76.5995 23.0584C76.7576 23.1207 76.9565 23.1522 77.2302 23.1522C77.3976 23.1522 77.5659 23.1522 77.7342 23.1412C77.9025 23.1309 78.07 23.1104 78.2383 23.0687V24.8803C77.9756 24.9119 77.713 24.9323 77.4716 24.963C77.2171 24.9927 76.9611 25.0067 76.7049 25.0048C76.075 25.0048 75.571 24.9426 75.1919 24.8291C74.8145 24.7148 74.5093 24.5391 74.2994 24.3114C74.0784 24.0837 73.9424 23.8039 73.8582 23.4619C73.7764 23.0772 73.7309 22.6857 73.7222 22.2925V16.0268H71.9262V14.2561H71.9049L71.9041 14.2586ZM79.8966 14.2586H82.1449V15.6967H82.1874C82.5223 15.0757 82.9847 14.6407 83.5831 14.3721C84.1947 14.0992 84.8577 13.9613 85.527 13.9678C86.377 13.9678 87.1123 14.1128 87.743 14.413C88.3728 14.703 88.8981 15.1073 89.318 15.6242C89.7379 16.1419 90.0431 16.7424 90.253 17.4265C90.467 18.138 90.5733 18.8778 90.5684 19.6211C90.5684 20.335 90.474 21.0284 90.2845 21.692C90.1104 22.3321 89.8221 22.9352 89.4336 23.4721C89.0518 23.9897 88.5558 24.4115 87.9844 24.7046C87.3962 25.0151 86.7136 25.1703 85.9155 25.1703C85.5666 25.1699 85.2184 25.1385 84.8751 25.0765C84.5326 25.0145 84.1981 24.9141 83.878 24.7771C83.56 24.6439 83.2626 24.4659 82.9949 24.2483C82.7306 24.0367 82.5004 23.7856 82.3123 23.5037H82.2698V28.8047H79.8966V14.2569V14.2586ZM88.1943 19.5793C88.1948 19.1071 88.1313 18.6371 88.0056 18.1822C87.8892 17.7511 87.6969 17.3444 87.4378 16.9812C87.1919 16.6357 86.8729 16.3491 86.5037 16.1419C86.1071 15.9269 85.6625 15.8165 85.2117 15.8212C84.2138 15.8212 83.4573 16.1624 82.9532 16.8464C82.4492 17.5297 82.1967 18.4415 82.1967 19.5793C82.1967 20.1175 82.2605 20.6147 82.3965 21.0702C82.5325 21.5257 82.722 21.9197 82.9949 22.2507C83.2584 22.5825 83.5729 22.8409 83.9409 23.0269C84.3081 23.2239 84.7391 23.3169 85.2219 23.3169C85.7684 23.3169 86.2198 23.2034 86.598 22.9859C86.9643 22.7745 87.2798 22.4847 87.522 22.1372C87.7634 21.785 87.9427 21.3909 88.0473 20.9465C88.1439 20.4972 88.1932 20.0389 88.1943 19.5793ZM92.3848 10.2097H94.7589V12.4257H92.3848V10.2097ZM92.3848 14.2578H94.7589V24.8803H92.3848V14.2578ZM96.8805 10.2097H99.2545V24.8803H96.8805V10.2097ZM106.533 25.1703C105.671 25.1703 104.904 25.0253 104.233 24.7464C103.589 24.4814 103.007 24.0866 102.521 23.5864C102.049 23.0761 101.688 22.4732 101.459 21.8157C101.21 21.0899 101.085 20.3266 101.092 19.5588C101.092 18.7511 101.218 18.0065 101.459 17.3224C101.688 16.6652 102.049 16.0626 102.521 15.5525C102.983 15.0553 103.561 14.6723 104.233 14.3925C104.904 14.1128 105.671 13.9678 106.533 13.9678C107.394 13.9678 108.161 14.1128 108.833 14.3925C109.506 14.6723 110.072 15.0664 110.545 15.5525C111.017 16.0624 111.378 16.6651 111.606 17.3224C111.847 18.0056 111.973 18.7511 111.973 19.5588C111.973 20.3776 111.847 21.1325 111.606 21.8157C111.378 22.4733 111.017 23.0763 110.545 23.5864C110.083 24.0837 109.506 24.4666 108.833 24.7464C108.161 25.0253 107.394 25.1703 106.533 25.1703ZM106.533 23.3169C107.058 23.3169 107.52 23.2034 107.908 22.9859C108.287 22.7744 108.614 22.4807 108.865 22.1262C109.116 21.7747 109.295 21.3705 109.421 20.9252C109.537 20.48 109.6 20.0245 109.6 19.5588C109.6 19.1033 109.537 18.6581 109.421 18.2026C109.313 17.7706 109.124 17.3631 108.865 17.0017C108.613 16.6505 108.286 16.3605 107.908 16.153C107.52 15.9355 107.058 15.8212 106.533 15.8212C106.008 15.8212 105.545 15.9355 105.157 16.153C104.781 16.3637 104.455 16.6532 104.202 17.0017C103.946 17.3652 103.757 17.772 103.645 18.2026C103.528 18.6453 103.468 19.101 103.465 19.5588C103.465 20.0245 103.529 20.48 103.645 20.9252C103.76 21.3705 103.949 21.7747 104.202 22.1262C104.453 22.4784 104.768 22.7684 105.157 22.9859C105.545 23.2137 106.008 23.3169 106.533 23.3169ZM112.667 14.2586H114.463V11.0686H116.837V14.2586H118.979V16.0072H116.837V21.6818C116.837 21.9291 116.847 22.1372 116.867 22.3232C116.889 22.4997 116.941 22.655 117.015 22.7787C117.095 22.9087 117.218 23.0074 117.361 23.0584C117.519 23.1207 117.718 23.1522 117.992 23.1522C118.159 23.1522 118.328 23.1522 118.496 23.1412C118.664 23.1309 118.832 23.1104 119 23.0687V24.8803C118.737 24.9119 118.475 24.9323 118.233 24.963C117.979 24.9927 117.723 25.0067 117.467 25.0048C116.837 25.0048 116.332 24.9426 115.954 24.8291C115.576 24.7148 115.271 24.5391 115.061 24.3114C114.841 24.0837 114.704 23.8039 114.62 23.4619C114.538 23.0772 114.493 22.6857 114.484 22.2925V16.0268H112.688V14.2561H112.667V14.2586Z" fill="black"/>
<path d="M28.4946 10.2089H17.6137L14.2528 0L10.88 10.2097L0 10.1986L8.81195 16.5138L5.44085 26.7116L14.2528 20.4066L23.0546 26.7116L19.6937 16.5138L28.4946 10.2089Z" fill="#04DA8D"/>
<path d="M20.4493 18.8236L19.6928 16.5146L14.2528 20.4075L20.4493 18.8236Z" fill="#126849"/>
</g>
<defs>
<clipPath id="clip0_329_1049">
<rect width="119" height="29" fill="white"/>
</clipPath>
</defs>
</svg>
