<svg width="128" height="24" viewBox="0 0 128 24" fill="none" xmlns="http://www.w3.org/2000/svg">
<path d="M50.0869 23.6702L53.6156 19.0113L50.9629 18.647L49.4707 20.4455C49.1461 20.8371 48.6044 20.6018 48.3222 20.4009L40.6766 14.9472C40.3873 14.7409 40.6315 14.3788 40.9316 14.3292L48.5924 13.0683L49.5077 11.509L37.5466 13.4781C37.101 13.5505 36.7621 14.0595 37.1689 14.3931L48.387 23.6032C48.7835 23.9288 49.6332 24.2712 50.0869 23.6702Z" fill="#FFB600"/>
<path d="M57.5481 0.552939L66.7533 17.3253C67.6923 19.0349 66.7488 20.8156 65.1392 20.5942L54.4685 19.1287L55.5267 17.323L63.2272 18.3178C64.0278 18.4277 63.9439 17.8776 63.6063 17.261L57.1123 3.72183C56.9752 3.47268 56.5117 3.34274 56.3545 3.61199L49.1657 15.858C48.9527 16.221 48.8933 16.4626 49.3559 16.526L52.3967 16.9189L50.9625 18.6469L47.1019 18.1165C46.3822 18.0173 46.0674 17.3695 46.4938 16.643L55.754 0.867283C56.1706 0.158223 56.9663 -0.506186 57.5481 0.552939Z" fill="#019EEC"/>
<path d="M54.9507 17.2489L55.6972 16.2625L58.9903 11.9153C59.723 10.9486 59.5694 9.85332 58.5741 10.0163L52.7659 10.9727L52.0256 12.5034L55.1404 11.9903C55.812 11.88 55.9451 12.6427 55.4213 13.274L53.3106 15.8174L52.3962 16.9189L49.8707 19.9628L51.9483 21.2117L54.9507 17.2489Z" fill="#FFB500"/>
<path d="M74.4253 12.3172H74.173C73.9966 11.7814 73.8443 11.3554 73.7144 11.0393C73.5845 10.7232 73.4563 10.4812 73.33 10.3137C73.2045 10.1463 73.0643 10.0364 72.9116 9.9842C72.758 9.9324 72.5709 9.90606 72.3494 9.90606C72.0512 9.90606 71.7819 9.96723 71.5408 10.0905C71.3001 10.2133 71.0934 10.4218 70.9215 10.7156C70.7496 11.0098 70.6174 11.4005 70.5254 11.8877C70.4339 12.3748 70.3875 12.9798 70.3875 13.7014C70.3875 14.431 70.4294 15.0374 70.5138 15.5209C70.5978 16.005 70.7264 16.3934 70.8978 16.6872C71.0702 16.9815 71.2836 17.1896 71.5399 17.3123C71.7958 17.4351 72.0998 17.4963 72.4517 17.4963C72.6883 17.4963 72.891 17.4499 73.0594 17.3565C73.2277 17.2637 73.3786 17.111 73.5126 16.8993C73.6461 16.6868 73.7684 16.4064 73.8792 16.0563C73.9899 15.7062 74.1105 15.2713 74.2409 14.7503H74.4927V17.2726C74.1716 17.4365 73.8372 17.5557 73.4894 17.6303C73.1415 17.7044 72.7955 17.7419 72.4517 17.7419C71.9619 17.7419 71.5055 17.6468 71.0813 17.457C70.6567 17.2672 70.2883 16.9976 69.9744 16.6475C69.6605 16.2974 69.4141 15.8737 69.235 15.3745C69.0551 14.8762 68.9653 14.318 68.9653 13.7001C68.9653 13.0825 69.0551 12.5244 69.235 12.0256C69.4141 11.5269 69.661 11.1032 69.9744 10.7531C70.2879 10.4035 70.6563 10.1333 71.0813 9.94357C71.5055 9.7538 71.9623 9.65869 72.4517 9.65869C72.8419 9.65869 73.1974 9.69799 73.5184 9.77612C73.8394 9.85426 74.1417 9.95651 74.4244 10.0833V12.3172H74.4253Z" fill="#019EEC" stroke="#019EEC" stroke-width="0.0913271"/>
<path d="M76.0184 13.9246V12.1163C76.2948 11.9975 76.5644 11.9006 76.827 11.826C77.0891 11.7515 77.3619 11.7144 77.6459 11.7144C77.979 11.7144 78.2665 11.7573 78.5077 11.843C78.7488 11.9287 78.9488 12.0386 79.1087 12.1721C79.2685 12.3056 79.3855 12.4588 79.4596 12.6298C79.5342 12.8012 79.5712 12.9722 79.5712 13.1428V17.3181H80.0821V17.5637H78.6358V16.5814H78.6144C78.4867 16.9315 78.2808 17.2123 77.9973 17.4244C77.7133 17.6365 77.3802 17.7428 76.9976 17.7428C76.5153 17.7428 76.1255 17.6066 75.8277 17.3351C75.5299 17.0636 75.3807 16.6823 75.3807 16.1907C75.3807 15.8634 75.4357 15.6013 75.5455 15.4035C75.6553 15.2066 75.8027 15.0503 75.9871 14.9347C76.1711 14.8195 76.3787 14.7337 76.6095 14.6779C76.8399 14.6221 77.0757 14.5721 77.3168 14.5274C77.5579 14.4823 77.7932 14.4323 78.0241 14.3765C78.2545 14.3207 78.4585 14.2368 78.6358 14.1251V12.9535C78.6358 12.5963 78.5519 12.3418 78.3858 12.1891C78.2188 12.0364 77.9937 11.96 77.7097 11.96C77.5253 11.96 77.3695 11.9895 77.2418 12.0493C77.1141 12.1091 76.9989 12.2114 76.8962 12.3565C76.7935 12.5012 76.6926 12.7021 76.593 12.9593C76.4934 13.2165 76.38 13.538 76.2523 13.9246H76.0184ZM78.6354 14.4163C78.3375 14.5649 78.0553 14.6659 77.7892 14.7177C77.5235 14.7699 77.2914 14.8387 77.0927 14.9244C76.894 15.0097 76.7359 15.1418 76.6189 15.3204C76.5019 15.499 76.4434 15.7897 76.4434 16.1911C76.4434 16.6153 76.5158 16.9132 76.6613 17.0842C76.8065 17.2556 77.0212 17.3409 77.3048 17.3409C77.7084 17.3262 78.0312 17.1306 78.2723 16.7546C78.5135 16.3787 78.6345 15.8822 78.6345 15.2642V14.4163H78.6354Z" fill="#019EEC" stroke="#019EEC" stroke-width="0.0913271"/>
<path d="M80.7518 11.893H82.2409V12.6521H82.2624C82.3896 12.4141 82.5776 12.198 82.8263 12.0046C83.0746 11.8113 83.3862 11.7144 83.7622 11.7144C83.9752 11.7144 84.1681 11.7425 84.3422 11.7984C84.5159 11.8542 84.6668 11.947 84.7941 12.0774C84.9218 12.2074 85.0214 12.377 85.0919 12.5851C85.1629 12.7936 85.1982 13.0504 85.1982 13.3558V17.3186H85.7728V17.5642H83.5814V17.3186H84.1985V13.2218C84.1985 12.8048 84.1364 12.5168 84.0123 12.3565C83.8886 12.1966 83.7024 12.1163 83.4541 12.1163C83.305 12.1163 83.1634 12.1498 83.0286 12.2172C82.8937 12.2837 82.775 12.3882 82.6723 12.5293C82.5696 12.6708 82.4861 12.8477 82.4222 13.0598C82.3579 13.2723 82.3262 13.5232 82.3262 13.8135V17.319H82.9433V17.5646H80.7523V17.319H81.3265V12.1386H80.7523V11.893H80.7518Z" fill="#019EEC" stroke="#019EEC" stroke-width="0.0913271"/>
<path d="M87.2513 13.9246V12.1163C87.5277 11.9975 87.7974 11.9006 88.0599 11.826C88.322 11.7515 88.5948 11.7144 88.8788 11.7144C89.2119 11.7144 89.4995 11.7573 89.7406 11.843C89.9817 11.9287 90.1817 12.0386 90.3416 12.1721C90.5014 12.3056 90.6184 12.4588 90.6925 12.6298C90.7671 12.8012 90.8042 12.9722 90.8042 13.1428V17.3181H91.315V17.5637H89.8687V16.5814H89.8473C89.7196 16.9315 89.5137 17.2123 89.2302 17.4244C88.9462 17.6365 88.6131 17.7428 88.2305 17.7428C87.7482 17.7428 87.3584 17.6066 87.0606 17.3351C86.7628 17.0636 86.6136 16.6823 86.6136 16.1907C86.6136 15.8634 86.6686 15.6013 86.7784 15.4035C86.8883 15.2066 87.0356 15.0503 87.22 14.9347C87.404 14.8195 87.6116 14.7337 87.8424 14.6779C88.0728 14.6221 88.3086 14.5721 88.5497 14.5274C88.7908 14.4823 89.0261 14.4323 89.257 14.3765C89.4874 14.3207 89.6914 14.2368 89.8687 14.1251V12.9535C89.8687 12.5963 89.7848 12.3418 89.6187 12.1891C89.4517 12.0364 89.2266 11.96 88.9426 11.96C88.7582 11.96 88.6024 11.9895 88.4747 12.0493C88.347 12.1091 88.2318 12.2114 88.1291 12.3565C88.0264 12.5012 87.9255 12.7021 87.8259 12.9593C87.7263 13.2165 87.6129 13.538 87.4852 13.9246H87.2513ZM89.8678 14.4163C89.57 14.5649 89.2878 14.6659 89.0217 14.7177C88.756 14.7699 88.5238 14.8387 88.3251 14.9244C88.1264 15.0097 87.9684 15.1418 87.8514 15.3204C87.7344 15.499 87.6759 15.7897 87.6759 16.1911C87.6759 16.6153 87.7482 16.9132 87.8938 17.0842C88.0389 17.2556 88.2537 17.3409 88.5372 17.3409C88.9409 17.3262 89.2637 17.1306 89.5048 16.7546C89.7459 16.3787 89.8669 15.8822 89.8669 15.2642V14.4163H89.8678Z" fill="#019EEC" stroke="#019EEC" stroke-width="0.0913271"/>
<path d="M92.6438 12.1386H92.0696V11.893H93.6225V12.7195H93.644C93.7574 12.3922 93.915 12.1426 94.1177 11.9716C94.3196 11.8006 94.591 11.7148 94.9313 11.7148C95.0661 11.7148 95.2023 11.739 95.3407 11.7876C95.4791 11.8363 95.5872 11.8787 95.6653 11.9162V14.1041H95.4314L95.0594 12.9544C94.9598 12.657 94.8746 12.4427 94.804 12.3123C94.733 12.1823 94.6339 12.1167 94.5062 12.1167C94.3999 12.1167 94.2932 12.1649 94.1869 12.2618C94.0807 12.3587 93.9887 12.4909 93.9106 12.6583C93.8324 12.8258 93.7686 13.0196 93.719 13.2388C93.6694 13.4585 93.6444 13.6947 93.6444 13.9478V17.319H94.3463V17.5646H92.07V17.319H92.6442V12.1386H92.6438Z" fill="#019EEC" stroke="#019EEC" stroke-width="0.0913271"/>
<path d="M97.1009 13.9246V12.1163C97.3773 11.9975 97.647 11.9006 97.9095 11.826C98.1716 11.7515 98.4444 11.7144 98.7284 11.7144C99.0615 11.7144 99.3491 11.7573 99.5902 11.843C99.8313 11.9287 100.031 12.0386 100.191 12.1721C100.351 12.3056 100.468 12.4588 100.542 12.6298C100.617 12.8012 100.654 12.9722 100.654 13.1428V17.3181H101.165V17.5637H99.7183V16.5814H99.6969C99.5692 16.9315 99.3633 17.2123 99.0798 17.4244C98.7958 17.6365 98.4627 17.7428 98.0801 17.7428C97.5978 17.7428 97.208 17.6066 96.9102 17.3351C96.6124 17.0636 96.4633 16.6823 96.4633 16.1907C96.4633 15.8634 96.5182 15.6013 96.628 15.4035C96.7379 15.2066 96.8852 15.0503 97.0696 14.9347C97.2536 14.8195 97.4612 14.7337 97.692 14.6779C97.9225 14.6221 98.1582 14.5721 98.3993 14.5274C98.6404 14.4823 98.8758 14.4323 99.1066 14.3765C99.337 14.3207 99.5411 14.2368 99.7183 14.1251V12.9535C99.7183 12.5963 99.6344 12.3418 99.4683 12.1891C99.3013 12.0364 99.0762 11.96 98.7923 11.96C98.6078 11.96 98.452 11.9895 98.3243 12.0493C98.1966 12.1091 98.0814 12.2114 97.9787 12.3565C97.876 12.5012 97.7751 12.7021 97.6755 12.9593C97.576 13.2165 97.4625 13.538 97.3348 13.9246H97.1009ZM99.7174 14.4163C99.4196 14.5649 99.1374 14.6659 98.8713 14.7177C98.6056 14.7699 98.3734 14.8387 98.1747 14.9244C97.976 15.0097 97.818 15.1418 97.701 15.3204C97.584 15.499 97.5255 15.7897 97.5255 16.1911C97.5255 16.6153 97.5979 16.9132 97.7434 17.0842C97.8885 17.2556 98.1033 17.3409 98.3868 17.3409C98.7905 17.3262 99.1133 17.1306 99.3544 16.7546C99.5955 16.3787 99.7165 15.8822 99.7165 15.2642V14.4163H99.7174Z" fill="#019EEC" stroke="#019EEC" stroke-width="0.0913271"/>
<path d="M105.536 10.0846H104.898V9.83905H107.94C108.281 9.83905 108.589 9.8837 108.865 9.973C109.142 10.0623 109.376 10.1851 109.567 10.3414C109.759 10.4977 109.908 10.6838 110.014 10.8995C110.12 11.1152 110.173 11.3496 110.173 11.6028C110.173 11.893 110.122 12.1462 110.019 12.3618C109.916 12.578 109.78 12.7583 109.609 12.9035C109.439 13.0486 109.248 13.1642 109.035 13.2495C108.823 13.3348 108.606 13.3964 108.386 13.4335V13.4558C109.138 13.5304 109.712 13.7389 110.109 14.0809C110.506 14.4234 110.705 14.8511 110.705 15.3646C110.705 15.6772 110.641 15.9674 110.514 16.2353C110.386 16.5032 110.191 16.7359 109.928 16.9332C109.666 17.1306 109.334 17.2846 108.933 17.3963C108.532 17.5079 108.056 17.5637 107.503 17.5637H104.897V17.3181H105.535V10.0846H105.536ZM106.685 13.3893H107.291C107.83 13.3893 108.243 13.2607 108.53 13.0039C108.817 12.7476 108.961 12.306 108.961 11.6814C108.961 11.1156 108.849 10.7084 108.626 10.4588C108.402 10.2097 108.081 10.0851 107.663 10.0851H106.685V13.3893ZM106.685 17.3186H107.184C107.943 17.3186 108.5 17.1752 108.854 16.8886C109.209 16.6019 109.386 16.1014 109.386 15.3874C109.386 14.7471 109.244 14.2957 108.961 14.0313C108.677 13.767 108.234 13.6348 107.631 13.6348H106.684V17.3186H106.685Z" fill="#019EEC" stroke="#019EEC" stroke-width="0.0913271"/>
<path d="M112.279 13.9246V12.1163C112.556 11.9975 112.826 11.9006 113.088 11.826C113.35 11.7515 113.623 11.7144 113.907 11.7144C114.24 11.7144 114.528 11.7573 114.769 11.843C115.01 11.9287 115.21 12.0386 115.37 12.1721C115.53 12.3056 115.647 12.4588 115.721 12.6298C115.795 12.8012 115.832 12.9722 115.832 13.1428V17.3181H116.343V17.5637H114.897V16.5814H114.875C114.748 16.9315 114.542 17.2123 114.258 17.4244C113.974 17.6365 113.641 17.7428 113.259 17.7428C112.776 17.7428 112.387 17.6066 112.089 17.3351C111.791 17.0636 111.642 16.6823 111.642 16.1907C111.642 15.8634 111.697 15.6013 111.807 15.4035C111.916 15.2066 112.064 15.0503 112.248 14.9347C112.432 14.8195 112.64 14.7337 112.871 14.6779C113.101 14.6221 113.337 14.5721 113.578 14.5274C113.819 14.4823 114.054 14.4323 114.285 14.3765C114.516 14.3207 114.72 14.2368 114.897 14.1251V12.9535C114.897 12.5963 114.813 12.3418 114.647 12.1891C114.48 12.0364 114.255 11.96 113.971 11.96C113.786 11.96 113.631 11.9895 113.503 12.0493C113.375 12.1091 113.26 12.2114 113.157 12.3565C113.055 12.5012 112.954 12.7021 112.854 12.9593C112.755 13.2165 112.641 13.538 112.513 13.9246H112.279ZM114.896 14.4163C114.599 14.5649 114.316 14.6659 114.05 14.7177C113.785 14.7699 113.552 14.8387 113.354 14.9244C113.155 15.0097 112.997 15.1418 112.88 15.3204C112.763 15.499 112.705 15.7897 112.705 16.1911C112.705 16.6153 112.777 16.9132 112.922 17.0842C113.068 17.2556 113.282 17.3409 113.566 17.3409C113.97 17.3262 114.292 17.1306 114.533 16.7546C114.775 16.3787 114.896 15.8822 114.896 15.2642V14.4163H114.896Z" fill="#019EEC" stroke="#019EEC" stroke-width="0.0913271"/>
<path d="M117.013 11.893H118.503V12.6521H118.524C118.651 12.4141 118.839 12.198 119.088 12.0046C119.336 11.8113 119.648 11.7144 120.024 11.7144C120.237 11.7144 120.43 11.7425 120.604 11.7984C120.778 11.8542 120.928 11.947 121.056 12.0774C121.183 12.2074 121.283 12.377 121.354 12.5851C121.425 12.7936 121.46 13.0504 121.46 13.3558V17.3186H122.034V17.5642H119.843V17.3186H120.46V13.2218C120.46 12.8048 120.398 12.5168 120.274 12.3565C120.15 12.1966 119.964 12.1163 119.716 12.1163C119.567 12.1163 119.425 12.1498 119.29 12.2172C119.155 12.2837 119.037 12.3882 118.934 12.5293C118.831 12.6708 118.748 12.8477 118.684 13.0598C118.62 13.2723 118.588 13.5232 118.588 13.8135V17.319H119.205V17.5646H117.014V17.319H117.588V12.1386H117.014V11.893H117.013Z" fill="#019EEC" stroke="#019EEC" stroke-width="0.0913271"/>
<path d="M122.789 17.5637V17.3181H123.363V10.0846H122.789V9.83905H124.363V14.5051L126.363 12.1381H125.682V11.8926H127.214V12.1381H126.703L125.182 13.98L127.363 17.3181H127.661V17.5637H126.342L124.385 14.5944H124.363V17.3186H125.044V17.5641H122.789V17.5637Z" fill="#019EEC" stroke="#019EEC" stroke-width="0.0913271"/>
<path d="M10.8511 14.9013C10.8511 15.7662 10.1072 16.4654 9.1919 16.4654C8.27208 16.4654 7.5282 15.7662 7.5282 14.9013C7.5282 14.0409 8.27253 13.3416 9.1919 13.3416C10.1072 13.3416 10.8511 14.0409 10.8511 14.9013ZM9.85898 14.9379C9.85898 14.2525 9.5433 13.7051 9.16019 13.7051C8.77709 13.7051 8.46587 14.2525 8.46587 14.9379C8.46587 15.6188 8.77709 16.1662 9.16019 16.1662C9.5433 16.1662 9.85898 15.6188 9.85898 14.9379Z" fill="#019EEC" stroke="#019EEC" stroke-width="0.0511233"/>
<path d="M8.77747 13.5446H11.8396" stroke="#019EEC" stroke-width="0.423877" stroke-miterlimit="10"/>
<path d="M12.1589 12.1957V17.5615" stroke="#019EEC" stroke-width="0.960423" stroke-miterlimit="10"/>
<path d="M11.1825 17.5248H13.061" stroke="#019EEC" stroke-width="0.318809" stroke-miterlimit="10"/>
<path d="M18.9222 12.1957V17.5615" stroke="#019EEC" stroke-width="0.960423" stroke-miterlimit="10"/>
<path d="M17.9457 17.5248H19.8241" stroke="#019EEC" stroke-width="0.318809" stroke-miterlimit="10"/>
<path d="M33.707 14.1528C34.0678 15.2428 33.6485 16.8806 32.2777 16.7747C32.0478 16.7564 31.8089 16.6966 31.6959 16.6046V15.3397H31.7183C32.0429 15.6339 31.9933 16.66 32.5028 16.4296C32.9855 16.2179 32.9538 15.0677 32.9221 14.631C32.8185 13.1727 31.6821 12.8553 30.9655 14.1528V13.4625C31.854 12.6392 33.3101 12.9428 33.707 14.1528Z" fill="#019EEC" stroke="#019EEC" stroke-width="0.0511233"/>
<path d="M30.2127 16.0666L30.181 13.7478L30.1765 13.2875L30.1587 12.0042H30.9655V13.4625V14.1528V17.3498H31.4705V17.6539H29.8113V17.3132L30.118 17.3315L30.2306 17.2949L30.2172 16.301L30.2127 16.0666Z" fill="#019EEC" stroke="#019EEC" stroke-width="0.0496343"/>
<path d="M30.2127 16.0666L30.2171 16.301C30.0189 16.7198 29.5317 16.9176 29.0852 16.8895C27.8136 16.8158 27.3403 15.3669 27.597 14.2859C27.8948 13.0205 29.1393 12.6758 30.1582 13.2875H30.1765L30.181 13.7474H30.1403C28.9093 12.6432 28.3413 13.8488 28.4449 15.1276C28.5124 15.9697 29.4911 17.2346 30.1944 16.0666H30.2127Z" fill="#019EEC" stroke="#019EEC" stroke-width="0.0511233"/>
<path d="M6.20288 14.1528C6.56366 15.2427 6.14439 16.8805 4.7736 16.7747C4.54365 16.7564 4.30476 16.6966 4.19179 16.6046V15.3396H4.21412C4.53873 15.6339 4.48917 16.66 4.99864 16.4296C5.48132 16.2179 5.44962 15.0677 5.41791 14.631C5.31432 13.1727 4.17795 12.8552 3.4613 14.1528V13.4625C4.34986 12.6391 5.80638 12.9427 6.20288 14.1528Z" fill="#019EEC" stroke="#019EEC" stroke-width="0.0511233"/>
<path d="M2.71301 16.301L2.70854 16.0665L2.67684 13.7478L2.67238 13.2879L2.65407 12.0046L1.41411 10.2976H0.643433V9.83771H1.99591L3.46136 12.0046V13.4629V14.1532V17.3873H3.96636V17.691H2.30713V17.3873H2.61388H2.7264L2.71301 16.3059C2.71301 16.3059 2.71301 16.3054 2.71301 16.301Z" fill="#019EEC" stroke="#019EEC" stroke-width="0.0511233"/>
<path d="M2.71299 16.301C2.71299 16.3054 2.71299 16.3054 2.71299 16.3054C2.50983 16.7198 2.02759 16.9176 1.58108 16.8899C0.309422 16.8162 -0.163879 15.3673 0.0928648 14.2863C0.390687 13.0209 1.63511 12.6762 2.65405 13.2879H2.67236L2.67682 13.7478H2.63664C1.40561 12.6436 0.837644 13.8492 0.941235 15.128C1.00866 15.9701 1.98741 17.2351 2.69066 16.067H2.70897L2.71299 16.301Z" fill="#019EEC" stroke="#019EEC" stroke-width="0.0511233"/>
<path d="M25.2864 17.6888V17.3481L25.5931 17.3664L25.7056 17.3298L25.6922 16.2483V16.2438L25.6878 16.0094L25.6561 13.6911L25.6516 13.2308L25.6333 12.039L25.1288 10.3878H24.4929V10.0195H25.7101L26.4406 12.039V17.3847H26.9456V17.6888H25.2864Z" fill="#019EEC" stroke="#019EEC" stroke-width="0.00148903"/>
<path d="M25.6922 16.2438V16.2483C25.485 16.6627 24.8626 16.8605 24.3531 16.8328C22.8926 16.7596 22.3514 15.3102 22.6443 14.2292C22.9872 12.9642 24.6148 12.6191 25.6337 13.2312H25.652L25.6565 13.6911H25.6158C24.3848 12.5865 23.5012 13.7925 23.6182 15.0713C23.5235 16.3729 24.9666 17.1784 25.6699 16.0099H25.6882L25.6922 16.2438Z" fill="#019EEC" stroke="#019EEC" stroke-width="0.0511233"/>
<path d="M23.0157 10.5052H24.2419L26.0953 12.2949V12.3547H25.3059L23.6605 10.8732H23.0157V10.5052Z" fill="#019EEC" stroke="#019EEC" stroke-width="0.00148903"/>
<path d="M16.7041 14.3412H16.0865C17.0331 13.863 16.4697 12.7637 16.2263 12.1975H16.9519C17.3622 12.5516 17.6328 12.874 17.5694 13.4397C17.5154 13.9595 17.2403 14.4703 16.7041 14.4194V14.3412Z" fill="#019EEC" stroke="#019EEC" stroke-width="0.0511233"/>
<path d="M17.1372 16.0893V17.2163C17.0559 17.2811 16.9791 17.3221 16.8939 17.373C16.0285 17.8472 14.4952 17.6168 14.4139 16.3751V14.3412H15.3521V16.7796C15.415 17.6856 17.0832 17.6075 17.0832 16.0893H17.1372Z" fill="#019EEC" stroke="#019EEC" stroke-width="0.0511233"/>
<path d="M13.8138 14.3412H14.414H15.3516H16.0866H16.7041H16.7809" stroke="#019EEC" stroke-width="0.182176" stroke-linejoin="round"/>
<path d="M0.472046 12.1975H16.2263H16.9523H20.1261" stroke="#019EEC" stroke-width="0.470533" stroke-linejoin="round"/>
<path d="M23.0168 12.1792H25.2708H26.0603H33.8376" stroke="#019EEC" stroke-width="0.470533" stroke-linejoin="round"/>
<path d="M27.1725 11.6704C27.4274 11.6704 27.634 11.4777 27.634 11.2399C27.634 11.0022 27.4274 10.8095 27.1725 10.8095C26.9177 10.8095 26.7111 11.0022 26.7111 11.2399C26.7111 11.4777 26.9177 11.6704 27.1725 11.6704Z" fill="#019EEC" stroke="#019EEC" stroke-width="0.0511233"/>
<path d="M23.3159 13.7532L25.949 15.7759" stroke="#019EEC" stroke-width="0.460606" stroke-miterlimit="10"/>
</svg>
