<svg width="76" height="24" viewBox="0 0 76 24" fill="none" xmlns="http://www.w3.org/2000/svg">
<path d="M63.182 7.02037C64.3105 7.02037 65.5951 8.00003 65.5951 9.35307C65.5951 10.1156 65.352 10.7043 64.9944 11.2422C64.7652 11.585 64.5905 11.9797 64.5184 12.2653C64.4408 12.5878 64.2707 13.3687 65.2255 13.3817C65.8465 13.3974 67.3752 12.8568 68.6099 11.3678C69.5599 10.1719 70.1247 8.65527 70.1247 7.00097C70.1247 3.135 67.0202 0 63.182 0C59.3428 0 56.2327 3.135 56.2327 7.00097C56.2327 8.65527 56.7966 10.1719 57.7476 11.3678C58.9842 12.8568 60.5119 13.3974 61.1321 13.3817C62.0868 13.3687 61.914 12.5878 61.84 12.2653C61.7698 11.9797 61.5942 11.585 61.3631 11.2422C61.0064 10.7043 60.7625 10.1156 60.7625 9.35307C60.7652 8.00003 62.048 7.02037 63.182 7.02037ZM75.4629 14.0962C75.1783 13.8605 74.6792 13.5167 73.6543 13.3586C72.2319 13.1461 70.9629 13.4796 70.1986 13.7828C69.1941 14.1803 67.9564 15.0841 67.1015 16.2615C66.1995 17.5056 65.7327 19.3836 66.1802 21.3411C66.3068 21.892 66.4436 22.2025 66.6478 22.5887C66.9149 23.1137 67.6191 23.8467 68.2357 23.9788C68.7227 24.0796 69.1034 23.7995 69.2902 23.5878C70.5322 22.1489 75.2393 16.5767 75.7494 15.8651C76.2505 15.1581 75.9232 14.4787 75.4629 14.0962ZM56.1625 13.7828C55.3983 13.4796 54.1302 13.1461 52.7078 13.3586C51.6829 13.5167 51.1792 13.8605 50.8982 14.0962C50.438 14.4787 50.108 15.1581 50.6117 15.8651C51.1191 16.5767 55.8252 22.1489 57.0673 23.5878C57.2541 23.7995 57.6348 24.0796 58.1229 23.9788C58.743 23.8467 59.4445 23.1137 59.7106 22.5887C59.9177 22.2025 60.0516 21.892 60.1819 21.3411C60.6284 19.3836 60.1543 17.5056 59.2606 16.2615C58.4047 15.0841 57.1653 14.1803 56.1625 13.7828Z" fill="#007DBA"/>
<path d="M47.8806 18.8791H42.0793L44.46 15.7442H38.0145L35.7179 18.7627C34.8593 19.9623 34.7761 21.173 34.7761 22.0132V22.4882C34.7761 23.0372 35.1162 23.3357 35.6209 23.3357H47.8806C48.375 23.3357 48.7087 23.063 48.7087 22.5049V19.7128C48.7087 19.1509 48.375 18.8791 47.8806 18.8791ZM14.8555 7.80429C14.7632 7.27935 14.4073 7.02051 13.9443 7.02051H12.3048C10.5987 7.02051 9.09308 7.92532 8.24934 9.29225C8.24934 9.29225 6.68465 11.7942 4.93134 14.6101H16.0626L14.8555 7.80429ZM33.1902 7.85148C33.1902 7.29312 32.8575 7.02051 32.3593 7.02051H29.0219C28.5275 7.02051 28.1939 7.29312 28.1939 7.85148V14.1768L25.0303 8.49007C24.3981 7.44206 23.3335 7.04366 22.0913 7.02051H19.6246C19.1347 7.02051 18.8001 7.29312 18.8001 7.85148V14.6139H22.9462L23.5839 15.7442H18.8001V22.5049C18.8001 23.063 19.1347 23.3404 19.6246 23.3404H22.9702C23.4674 23.3404 23.7964 23.063 23.7964 22.5049L23.7946 16.1398L26.9878 21.8727C27.6135 22.9152 28.6819 23.3136 29.9156 23.3404H32.3593C32.8575 23.3404 33.1902 23.063 33.1902 22.5049V15.7442H29.0738L28.4378 14.6139H33.1902V7.85148ZM16.2604 15.7442H10.7631C10.9036 16.5131 11.9175 22.2304 11.9776 22.5631C12.071 23.0779 12.3917 23.3404 12.862 23.3404H16.644C16.9905 23.3404 17.1652 23.2314 17.3279 23.0336C17.4388 22.8958 17.485 22.6869 17.4332 22.381L16.2604 15.7442ZM0.120834 22.3173C-0.0288734 22.5732 -0.0288734 22.8422 0.0625954 23.0168C0.167961 23.2211 0.402691 23.3404 0.655964 23.3404H4.58389C5.07916 23.3404 5.522 23.0733 5.7687 22.674L10.1033 15.7442H4.2234C2.20492 18.9799 0.171627 22.2424 0.120834 22.3173ZM35.7309 11.4716H41.2577L38.8742 14.6101H45.3178L47.668 11.5187C48.3936 10.563 48.5617 9.7073 48.5617 8.9503V7.87363C48.5617 7.32178 48.2281 7.02051 47.7198 7.02051H35.7309C35.2364 7.02051 34.9056 7.29312 34.9056 7.85148V10.6435C34.9056 11.1999 35.2364 11.4716 35.7309 11.4716Z" fill="#007DBA"/>
</svg>
