<svg width="191" height="24" viewBox="0 0 191 24" fill="none" xmlns="http://www.w3.org/2000/svg">
<path d="M97.7164 9.04753C97.3624 10.2614 97.4632 9.80601 96.9394 11.797C96.4659 13.6878 95.9745 15.56 95.6036 16.8081C95.4848 17.0445 95.3486 17.2827 95.1644 17.5179C94.9442 17.8048 94.6897 18.0916 94.4035 18.3448C92.796 19.7454 90.3963 20.5734 88.3189 20.2524C88.1485 20.2332 87.9451 20.2002 87.7105 20.1336C86.4065 19.8294 85.5455 19.1867 85.0552 18.3796C84.5314 17.5179 84.3958 16.3874 84.5812 15.1717C84.5992 15.0037 84.6496 14.7841 84.7156 14.5309C85.5107 11.323 86.3225 8.13544 87.1182 4.94614C87.4386 3.32718 84.0225 2.90354 83.2964 5.01274L81.0984 13.6542C81.0498 13.923 80.9814 14.2602 80.9292 14.6137C80.6082 16.6725 80.9124 18.6329 81.8605 20.2524C82.8572 21.9212 84.4978 23.1723 86.8464 23.7261C87.1002 23.7946 87.405 23.8456 87.7591 23.8966C90.8848 24.3688 94.4869 23.1867 96.8386 21.1117C97.3096 20.6893 97.7506 20.2332 98.1227 19.7454C98.4941 19.2383 98.8151 18.6983 99.0702 18.124V18.1078L99.1368 17.923C99.5088 16.7061 100.016 14.7163 100.54 12.7079C101.029 10.8015 101.215 10.1432 101.587 8.89392C101.943 7.19035 98.6291 6.46428 97.7164 9.04753Z" fill="#ED1D24"/>
<path d="M91.9197 14.9361C92.2888 13.7396 92.1891 14.192 92.6962 12.1854C93.1876 10.3126 93.6773 8.42064 94.0295 7.18932C94.1501 6.9541 94.3025 6.70088 94.4868 6.48185C94.7076 6.17702 94.9608 5.9082 95.247 5.65557C96.8546 4.23764 99.2722 3.42636 101.334 3.73119C101.503 3.76419 101.706 3.7978 101.942 3.8488C103.245 4.17043 104.123 4.79509 104.615 5.62137C105.12 6.48185 105.275 7.59676 105.087 8.82568C105.053 8.9961 105.02 9.19772 104.952 9.46834C104.105 12.8431 103.261 16.1998 102.434 19.5763C102.212 21.5847 105.763 21.7863 106.27 19.5253L108.553 10.3456C108.619 10.0588 108.688 9.73897 108.738 9.36813C109.042 7.32494 108.756 5.36875 107.791 3.74859C106.813 2.07743 105.172 0.828108 102.822 0.271854C102.568 0.221449 102.262 0.153042 101.892 0.102037C98.7652 -0.369009 95.1648 0.82811 92.8144 2.88811C92.3242 3.30935 91.9011 3.76419 91.5279 4.25384C91.157 4.74289 90.8348 5.29914 90.6002 5.8746L90.5144 6.07621C90.1603 7.27453 89.6353 9.28292 89.1282 11.2745C88.6212 13.1983 88.4532 13.8566 88.0799 15.0873C88.0469 17.3993 91.5111 17.1971 91.9197 14.9361Z" fill="#006CB7"/>
<path d="M97.7164 9.04753C97.3624 10.2614 97.4632 9.80601 96.9394 11.797C96.4659 13.6878 95.9745 15.56 95.6036 16.8081C95.4848 17.0445 95.3486 17.2827 95.1644 17.5179C94.9442 17.8048 94.6897 18.0916 94.4035 18.3448C92.796 19.7454 90.3963 20.5734 88.3189 20.2524C88.1485 20.2332 87.9451 20.2002 87.7105 20.1336C86.4065 19.8294 85.5455 19.1867 85.0552 18.3796C84.5314 17.5179 84.3958 16.3874 84.5812 15.1717C84.5992 15.0037 84.6496 14.7841 84.7156 14.5309C85.5107 11.323 86.3225 8.13544 87.1182 4.94614C87.4386 3.32718 84.0225 2.90354 83.2964 5.01274L81.0984 13.6542C81.0498 13.923 80.9814 14.2602 80.9292 14.6137C80.6082 16.6725 80.9124 18.6329 81.8605 20.2524C82.8572 21.9212 84.4978 23.1723 86.8464 23.7261C87.1002 23.7946 87.405 23.8456 87.7591 23.8966C90.8848 24.3688 94.4869 23.1867 96.8386 21.1117C97.3096 20.6893 97.7506 20.2332 98.1227 19.7454C98.4941 19.2383 98.8151 18.6983 99.0702 18.124V18.1078L99.1368 17.923C99.5088 16.7061 100.016 14.7163 100.54 12.7079C101.029 10.8015 101.215 10.1432 101.587 8.89392C101.943 7.19035 98.6291 6.46428 97.7164 9.04753Z" fill="#ED1D24"/>
<path d="M91.9197 14.9363C92.2888 13.7398 92.1891 14.1922 92.6962 12.1856C93.1876 10.3129 93.6773 8.42089 94.0295 7.18957C94.1501 6.95434 94.3025 6.70112 94.4868 6.4821C94.7076 6.17727 94.9608 5.90844 95.247 5.65582C96.8546 4.23788 99.2722 3.4266 101.334 3.73143C101.503 3.76444 101.706 3.79804 101.942 3.84904C103.245 4.17068 104.123 4.79534 104.615 5.62162C105.12 6.4821 105.275 7.59701 105.087 8.82592C105.053 8.99634 105.02 9.19796 104.952 9.46859C104.105 12.8433 103.261 16.2 102.434 19.5766C102.212 21.585 105.763 21.7866 106.27 19.5256L108.553 10.3459C108.619 10.059 108.688 9.73921 108.738 9.36838C109.042 7.32518 108.756 5.36899 107.791 3.74883C106.813 2.07767 105.172 0.828352 102.822 0.272099C102.568 0.221693 102.262 0.153286 101.892 0.102282C98.7652 -0.368765 95.1648 0.828354 92.8144 2.88835C92.3242 3.30959 91.9011 3.76444 91.5279 4.25408C91.157 4.74313 90.8348 5.29939 90.6002 5.87484L90.5144 6.07646C90.1603 7.27477 89.6353 9.28317 89.1282 11.2748C88.6212 13.1985 88.4532 13.8568 88.0799 15.0875C88.0469 17.3996 91.5111 17.1973 91.9197 14.9363Z" fill="#006CB7"/>
<path d="M178.514 18.5793C178.277 18.5793 178.058 18.6327 177.84 18.7323C177.62 18.8331 177.415 18.9687 177.248 19.1715L177.35 18.6663H176.588L175.827 22.2762L175.81 22.3765H176.604L177.059 20.2174C177.113 19.9138 177.248 19.6762 177.45 19.5076C177.653 19.3234 177.907 19.2406 178.21 19.2406C178.43 19.2406 178.583 19.3078 178.684 19.4254C178.768 19.543 178.785 19.711 178.735 19.9474L178.226 22.3765H179.023L179.511 20.0146C179.631 19.4914 179.614 19.1043 179.446 18.8997C179.293 18.6819 178.99 18.5793 178.514 18.5793ZM182.894 20.5043C182.793 20.9255 182.638 21.2459 182.436 21.483C182.285 21.6336 182.099 21.7374 181.896 21.7866C181.812 21.8046 181.727 21.819 181.626 21.819C181.323 21.819 181.101 21.7008 180.967 21.483C180.849 21.2634 180.83 20.9423 180.916 20.5547C181.002 20.1334 181.152 19.8124 181.371 19.5766C181.524 19.4254 181.71 19.3234 181.896 19.273C181.98 19.2562 182.066 19.2406 182.166 19.2406C182.487 19.2406 182.707 19.3408 182.844 19.5586C182.962 19.7782 182.978 20.0818 182.894 20.5043ZM184.313 17.3138H183.553L183.163 19.1193C183.062 18.9333 182.928 18.7821 182.76 18.6819C182.589 18.5979 182.372 18.5445 182.135 18.5445C182.048 18.5445 181.98 18.5445 181.896 18.5643C181.524 18.6141 181.17 18.7821 180.865 19.0869C180.493 19.4584 180.239 19.9474 180.121 20.5397C179.986 21.1277 180.036 21.6 180.254 21.9726C180.477 22.3267 180.83 22.5127 181.302 22.5127C181.507 22.5127 181.71 22.4611 181.896 22.3933C181.929 22.3765 181.946 22.3765 181.964 22.3585C182.183 22.2576 182.388 22.1064 182.589 21.9042L182.487 22.3765H183.248L184.245 17.6012L184.313 17.3138ZM172.006 17.246C171.684 17.246 171.433 17.3324 171.228 17.483C171.043 17.636 170.909 17.8904 170.841 18.2097L170.755 18.6663H170.18L170.062 19.2562H170.621L169.959 22.3765H170.755L171.416 19.2562H172.058L172.192 18.6663H171.534L171.601 18.3795C171.637 18.2097 171.684 18.0734 171.751 18.0248C171.821 17.9564 171.922 17.939 172.075 17.939H172.176L172.345 17.9564L172.478 17.2802H172.446C172.244 17.2652 172.093 17.246 172.006 17.246ZM175.861 17.3138H174.999L173.933 22.3765H174.78L175.827 17.4158L175.861 17.3138ZM186.055 17.3138H185.26L185.091 18.1076H185.885L186.055 17.3138ZM188.387 20.9921C188.339 21.2459 188.202 21.4494 187.967 21.6186C187.848 21.7008 187.728 21.7698 187.593 21.819C187.456 21.8538 187.324 21.8712 187.188 21.8712C187.003 21.8712 186.866 21.819 186.765 21.7374C186.682 21.6336 186.665 21.501 186.699 21.33C186.73 21.1793 186.798 21.0605 186.901 20.9591C187.018 20.8757 187.172 20.8079 187.357 20.7731C187.405 20.7731 187.491 20.7575 187.593 20.7401L187.66 20.7221C188.033 20.6729 188.303 20.6045 188.489 20.5217L188.387 20.9921ZM188.184 18.5445C187.967 18.5445 187.762 18.5643 187.593 18.6141C187.373 18.6663 187.172 18.7497 187.003 18.8655C186.682 19.0869 186.478 19.3726 186.41 19.7434L186.392 19.8124H187.137V19.7782C187.188 19.5946 187.272 19.441 187.424 19.3408C187.475 19.3078 187.526 19.2892 187.593 19.2562C187.711 19.2214 187.848 19.189 188.016 19.189C188.271 19.189 188.456 19.2406 188.576 19.3234C188.675 19.4068 188.708 19.543 188.675 19.711C188.623 19.9306 188.339 20.0818 187.829 20.1502H187.746C187.695 20.1658 187.644 20.1658 187.593 20.1838C187.053 20.2523 186.665 20.3861 186.427 20.5547C186.155 20.7401 185.985 21.0263 185.902 21.399C185.836 21.7518 185.885 22.0224 186.055 22.2084C186.223 22.4113 186.493 22.5127 186.866 22.5127C187.119 22.5127 187.357 22.4611 187.593 22.3429C187.829 22.242 188.049 22.0902 188.237 21.8868C188.202 22.0902 188.237 22.2264 188.339 22.3087C188.422 22.4113 188.591 22.4611 188.826 22.4611C188.895 22.4611 188.963 22.4449 189.03 22.4449C189.098 22.4263 189.182 22.4113 189.25 22.3933L189.369 21.819C189.317 21.8376 189.283 21.8376 189.266 21.8376H189.217C189.132 21.8376 189.081 21.819 189.048 21.7698C189.03 21.7188 189.03 21.6336 189.065 21.483L189.452 19.6438C189.521 19.2892 189.452 19.0017 189.25 18.8163C189.03 18.6327 188.675 18.5445 188.184 18.5445ZM168.475 21.4326C168.253 21.7374 167.966 21.9042 167.628 21.9726C167.544 21.9726 167.458 21.9894 167.373 21.9894C167.053 21.9894 166.8 21.9042 166.629 21.7188C166.445 21.552 166.36 21.297 166.36 20.9591C166.36 20.7221 166.393 20.4701 166.477 20.2174C166.564 19.9642 166.664 19.7434 166.8 19.5586C166.919 19.3912 167.088 19.2406 167.256 19.1541C167.373 19.1043 167.495 19.0533 167.628 19.0359C167.695 19.0191 167.781 19.0191 167.848 19.0191C168.204 19.0191 168.457 19.1043 168.642 19.273C168.813 19.441 168.897 19.6936 168.897 20.0146C168.897 20.5895 168.761 21.0605 168.475 21.4326ZM167.932 18.4443C167.83 18.4443 167.729 18.4443 167.628 18.4623C167.088 18.5301 166.629 18.7497 166.276 19.1373C165.836 19.6096 165.632 20.2 165.632 20.9099C165.632 21.4326 165.785 21.8376 166.073 22.1238C166.377 22.4113 166.8 22.5469 167.358 22.5469H167.628C168.185 22.4785 168.642 22.2576 168.998 21.8538C169.437 21.399 169.657 20.8079 169.657 20.0998C169.657 19.5946 169.488 19.189 169.186 18.8835C168.878 18.5979 168.457 18.4443 167.932 18.4443ZM184.245 22.0902L184.196 22.3765H184.989L185.767 18.6663H184.972L184.245 22.0902ZM190.805 7.76445H188.033L185.361 10.2271L186.41 5.2172H184.094L182.048 14.9363H184.363L184.768 12.9934L185.836 12.1011L186.883 14.9681H189.485L187.728 10.4983L190.805 7.76445ZM170.333 12.3885C170.266 12.7587 170.062 13.0636 169.775 13.2808C169.605 13.3996 169.437 13.501 169.251 13.5496C169.082 13.6024 168.914 13.636 168.709 13.636C168.457 13.636 168.271 13.5496 168.135 13.3996C168.015 13.2484 167.982 13.03 168.033 12.7761C168.067 12.5733 168.169 12.4047 168.303 12.2859C168.457 12.1677 168.676 12.0675 168.965 11.9841C169.049 11.9655 169.15 11.9499 169.251 11.915C169.335 11.8994 169.403 11.882 169.505 11.8658C169.959 11.7794 170.316 11.6618 170.52 11.5616L170.333 12.3885ZM172.92 8.52412C172.734 8.20429 172.446 7.96727 172.04 7.81425C171.637 7.66364 171.11 7.59583 170.468 7.59583C170.029 7.59583 169.623 7.62943 169.251 7.69664C168.761 7.79805 168.337 7.94987 167.966 8.18569C167.34 8.57513 166.869 9.18118 166.58 9.99066H168.744C168.846 9.72064 169.014 9.51782 169.251 9.3828C169.488 9.24959 169.757 9.18118 170.079 9.18118C170.383 9.18118 170.603 9.23159 170.74 9.3504C170.873 9.45001 170.924 9.60423 170.873 9.82205L170.841 9.99066C170.79 10.2433 170.351 10.4305 169.505 10.5655C169.419 10.5811 169.335 10.5997 169.251 10.5997C168.813 10.6825 168.423 10.7509 168.118 10.8199C167.441 10.9706 166.919 11.2388 166.513 11.6114C166.123 11.9841 165.871 12.4545 165.736 13.0456C165.6 13.7038 165.701 14.2097 166.021 14.6003C166.343 14.9681 166.851 15.1542 167.544 15.1542C167.982 15.1542 168.405 15.0864 168.813 14.9189C168.965 14.8667 169.115 14.7995 169.251 14.7167C169.521 14.5811 169.775 14.3957 170.029 14.1917C170.011 14.3279 170.011 14.4467 169.995 14.5811V14.9363H172.395L172.446 14.6657C172.345 14.6003 172.278 14.4797 172.261 14.2937C172.244 14.1089 172.261 13.8556 172.329 13.5358L172.903 10.8013C173.038 10.1257 173.122 9.62103 173.106 9.3168C173.106 9.01317 173.038 8.74254 172.92 8.52412ZM176.756 11.0876C176.874 10.4983 177.059 10.0591 177.314 9.77164C177.553 9.50281 177.889 9.3666 178.295 9.3666C178.684 9.3666 178.921 9.48481 179.005 9.72064C179.106 9.94026 179.055 10.4797 178.887 11.3252L178.126 14.9363H180.477L181.455 10.2619C181.659 9.3168 181.608 8.64173 181.323 8.21869C181.033 7.79805 180.459 7.59583 179.631 7.59583C179.141 7.59583 178.684 7.68044 178.295 7.88146C177.889 8.06748 177.536 8.3543 177.197 8.74254L177.415 7.76445H175.118L173.613 14.9363H175.947L176.756 11.0876ZM150.284 7.59583C149.793 7.59583 149.353 7.68044 148.949 7.88146C148.56 8.06748 148.188 8.3543 147.867 8.74254L148.069 7.76445H145.771L144.264 14.9363H146.599L147.409 11.0876C147.527 10.4983 147.713 10.0591 147.967 9.77164C148.223 9.50281 148.543 9.3666 148.963 9.3666C149.337 9.3666 149.574 9.48481 149.659 9.72064C149.758 9.94026 149.707 10.4797 149.541 11.3252L148.777 14.9363H151.129L152.111 10.2619C152.312 9.3168 152.26 8.64173 151.974 8.21869C151.686 7.79805 151.129 7.59583 150.284 7.59583ZM134.138 5.2172L133.733 7.10678H136.084L136.473 5.2172H134.138ZM129.659 7.59583C129.169 7.59583 128.731 7.68044 128.324 7.88146C127.934 8.06748 127.565 8.3543 127.242 8.74254L127.447 7.76445H125.147L123.946 13.501L123.642 14.9363H125.973L126.785 11.0876C126.922 10.4983 127.108 10.0591 127.342 9.77164C127.597 9.50281 127.918 9.3666 128.341 9.3666C128.713 9.3666 128.947 9.48481 129.05 9.72064C129.134 9.94026 129.101 10.4797 128.916 11.3252L128.155 14.9363H130.504L131.484 10.2619C131.687 9.3168 131.638 8.64173 131.351 8.21869C131.064 7.79805 130.504 7.59583 129.659 7.59583ZM132.095 14.9363H134.427L135.931 7.76445H133.598L132.095 14.9363ZM141.645 11.3414C141.509 11.9841 141.273 12.4899 140.951 12.8427C140.75 13.0786 140.513 13.2316 140.24 13.3162C140.108 13.3498 139.954 13.3654 139.803 13.3654C139.362 13.3654 139.058 13.1986 138.89 12.8427C138.721 12.4899 138.704 12.0009 138.839 11.3414C138.975 10.6825 139.194 10.1941 139.517 9.83945C139.716 9.60423 139.971 9.45001 140.24 9.3666C140.377 9.3342 140.513 9.3168 140.665 9.3168C141.104 9.3168 141.424 9.48481 141.595 9.83945C141.763 10.1941 141.78 10.6993 141.645 11.3414ZM141.035 7.51062C140.767 7.51062 140.495 7.52742 140.24 7.56223C139.397 7.68044 138.653 8.00027 138.028 8.52412C137.215 9.19799 136.674 10.1431 136.419 11.3414C136.168 12.5391 136.304 13.4842 136.844 14.1581C137.369 14.8343 138.232 15.1716 139.431 15.1716C139.7 15.1716 139.971 15.1542 140.24 15.1206C141.086 14.9855 141.813 14.6657 142.44 14.1581C143.267 13.4842 143.792 12.5391 144.046 11.3414C144.3 10.1431 144.164 9.19799 143.623 8.52412C143.099 7.84786 142.236 7.51062 141.035 7.51062ZM124.234 5.2172H121.766L120.482 11.2916C120.344 11.9499 120.125 12.4203 119.804 12.7077C119.499 12.9934 119.06 13.1302 118.484 13.1302C117.894 13.1302 117.505 12.9934 117.319 12.7077C117.115 12.4203 117.099 11.9499 117.235 11.2916L118.501 5.2172H116.068L114.85 10.9856C114.682 11.7968 114.615 12.4395 114.682 12.9273C114.75 13.417 114.92 13.822 115.222 14.1581C115.526 14.4965 115.916 14.7665 116.388 14.9363C116.863 15.105 117.42 15.2058 118.063 15.2058C118.705 15.2058 119.297 15.105 119.838 14.9363C120.378 14.7665 120.886 14.4965 121.342 14.1581C121.766 13.822 122.119 13.417 122.372 12.9273C122.643 12.4545 122.863 11.7968 123.034 10.9856L123.946 6.65014L124.234 5.2172ZM163.082 8.08368C163.014 8.38851 162.86 8.62673 162.624 8.79295C162.389 8.94536 162.049 9.01317 161.626 9.01317H159.633L160.02 7.17399H162.118C162.489 7.17399 162.776 7.258 162.927 7.40981C163.098 7.56223 163.148 7.78185 163.082 8.08368ZM162.504 11.915C162.422 12.3039 162.237 12.5901 161.965 12.7587C161.813 12.8427 161.61 12.9111 161.374 12.9423C161.169 12.979 160.936 12.9934 160.662 12.9934H158.787L159.244 10.8529H161.374C161.813 10.8529 162.133 10.9538 162.32 11.1218C162.522 11.3072 162.574 11.5616 162.504 11.915ZM162.761 5.2172H158.043L155.998 14.9363H159.801C160.443 14.9363 160.95 14.9189 161.374 14.8853C161.543 14.8667 161.677 14.8517 161.813 14.8175C162.27 14.7509 162.659 14.6333 162.996 14.4647C163.485 14.2265 163.908 13.8886 164.264 13.4506C164.603 13.0114 164.821 12.5223 164.94 11.9655C165.058 11.4086 165.008 10.9538 164.786 10.5655C164.57 10.1941 164.194 9.94026 163.653 9.78964C164.179 9.60423 164.603 9.3504 164.924 8.99757C165.228 8.65913 165.446 8.23729 165.549 7.71464C165.736 6.86916 165.6 6.2445 165.144 5.83886C164.687 5.41882 163.892 5.2172 162.761 5.2172Z" fill="#ED1D24"/>
<path fill-rule="evenodd" clip-rule="evenodd" d="M53.7076 20.5863C53.6722 20.6529 53.6062 20.7225 53.5222 20.7549C53.4532 20.7891 53.3703 20.8233 53.2995 20.8233C53.0991 20.8233 52.9629 20.6037 53.0319 20.3505L53.2995 18.9331H53.5222H54.0286L53.7076 20.5863ZM52.1522 18.4603H52.0844H50.2758H50.1408H48.1786L48.0952 18.9331H48.6713L48.4499 20.03H47.7916L47.7238 20.3853C47.5696 20.1998 47.3692 20.0978 47.1315 20.1146C47.4706 20.0816 47.773 19.775 47.8582 19.4048C47.977 18.8323 47.6212 18.4435 46.9623 18.4603C46.6413 18.4603 46.3539 18.5269 46.1343 18.6463L46.016 19.2037C46.1511 19.0327 46.3695 18.9181 46.5717 18.9331C46.8105 18.9331 46.9623 19.1347 46.9107 19.4048C46.8615 19.6568 46.6581 19.8782 46.4559 19.8782C46.4373 19.8782 46.3875 19.862 46.3191 19.8284L46.2021 20.4699C46.2693 20.3853 46.3875 20.3342 46.5063 20.3505C46.7439 20.3505 46.8777 20.6529 46.8105 21.0585C46.7091 21.5314 46.3011 21.919 45.9152 21.919C45.677 21.919 45.494 21.817 45.3908 21.6496L45.2708 22.24C45.4244 22.3414 45.611 22.3924 45.8126 22.3924C46.8615 22.3924 47.6566 21.8686 47.8078 21.0585C47.8582 20.8233 47.8582 20.6205 47.773 20.5029H48.3473L47.977 22.3924H48.9923L49.6848 18.9331H50.0382H50.1918H50.5471L49.8534 22.3924H50.8675L51.5612 18.9331H51.9824H52.0676H52.3052L52.0166 20.3505C51.917 20.8749 52.3208 21.2787 52.9137 21.2961C53.1675 21.2961 53.3703 21.2787 53.5222 21.2283C53.539 21.2283 53.5552 21.2115 53.5714 21.2115L53.5222 21.4792L53.3343 22.3924H53.5222H54.3508L54.8231 20.03C54.9257 19.9292 55.0439 19.862 55.1447 19.8782C55.4153 19.8782 55.5846 20.2676 55.4832 20.7387C55.3649 21.3123 55.0439 21.7678 54.7727 21.7678L55.0439 22.1542C55.6866 22.1542 56.3286 21.5152 56.4799 20.7387C56.6329 19.9958 56.2278 19.4048 55.5996 19.4048C55.2785 19.4048 55.0265 19.4558 54.9257 19.5578L55.0439 18.9331H57.1045L57.2053 18.4603H53.5222H52.1522ZM68.7882 20.9061C68.7018 21.0429 68.4666 21.1605 68.1624 21.1953C68.0604 21.2115 67.9584 21.2115 67.8563 21.2115C66.8777 21.2115 67.0625 20.4003 67.1315 20.1818C67.5191 20.1818 67.8905 20.0816 68.1624 19.9112C68.3292 19.7948 68.4666 19.6424 68.4996 19.4738C68.5488 19.2211 68.4816 19.0015 68.3118 18.9331H69.2431L68.7882 20.9061ZM63.5803 18.4603H63.3451H63.1897H62.6838H62.3964C62.3292 18.3427 62.295 18.225 62.3292 18.09C62.415 17.7846 62.9047 17.5488 63.4285 17.532C63.4789 17.532 63.5305 17.532 63.5803 17.5488C64.3064 17.583 64.8141 17.9532 64.8315 18.4603H63.5803ZM68.1624 18.4603H66.3184H65.7621C65.6607 17.6844 64.7973 17.1611 63.5803 17.1275H63.4789C62.4486 17.1275 61.4999 17.5488 61.3661 18.0558C61.3163 18.225 61.3487 18.3595 61.4495 18.4603H61.4315H61.3163H60.5872H58.4912L58.406 18.9331H59.794L59.6926 19.4048H59.4051C59.0163 19.4048 58.6101 19.76 58.5248 20.1818C58.457 20.5863 58.6773 20.9061 59.0331 20.8905C59.4051 20.8905 59.6578 21.0753 59.6073 21.2961C59.5407 21.6334 59.2005 21.919 58.8315 21.919C58.508 21.919 58.2548 21.8518 58.0862 21.7174L57.968 22.3072C58.1036 22.3072 58.2884 22.4759 58.5596 22.7789C58.8315 23.1011 59.2863 23.2529 59.8612 23.2529C60.0808 23.2529 60.25 23.2187 60.3856 23.1335L60.5038 22.6283C60.301 22.7291 60.1318 22.7789 59.9632 22.7789C59.6926 22.7789 59.5053 22.7291 59.4051 22.6283C59.2701 22.4759 59.1681 22.4104 59.1003 22.3924C59.776 22.3924 60.4012 21.9532 60.5872 21.3976C60.6052 21.3621 60.6052 21.3279 60.6227 21.2961C60.6401 21.1605 60.6226 21.0429 60.5872 20.9409C60.487 20.7225 60.2662 20.5701 59.9632 20.5863H59.7436C59.5905 20.5863 59.4711 20.4855 59.5053 20.3505C59.5557 20.1308 59.7094 19.9454 59.8792 19.9454H60.5872L60.7925 18.9331H61.2317H61.3313H61.7376L61.0451 22.3924H62.0418L62.7343 18.9331H63.1075H63.2431H63.5803H64.8483L64.763 19.4048H64.1036C63.917 19.4048 63.7322 19.4738 63.5803 19.5746C63.3775 19.7252 63.2095 19.9454 63.1585 20.1818C63.1075 20.4855 63.2773 20.7549 63.5803 20.8575C63.6649 20.8905 63.767 20.9061 63.8852 20.8905H64.391C64.5944 20.8905 64.7126 21.1101 64.6622 21.3621C64.5944 21.6826 64.1372 21.9706 63.6991 21.9706H63.5803C63.1585 21.9532 62.9047 21.8518 62.7685 21.7678L62.6658 22.3072C62.8525 22.4104 63.1897 22.4609 63.5803 22.4609C64.4252 22.4435 65.5077 22.1542 65.6607 21.3621C65.7771 20.8575 65.5077 20.4357 65.0691 20.4189H64.4084C64.2554 20.4189 64.1372 20.3168 64.172 20.1818C64.1894 20.0468 64.3412 19.9454 64.5104 19.9454H65.6607L65.8624 18.9331H66.4018H67.1465C67.3499 18.9331 67.4867 19.1695 67.4003 19.4738C67.2833 19.9802 66.6736 19.9802 66.337 19.8962C66.2008 20.0978 66.0994 20.3853 66.0652 20.5863C65.8276 21.598 67.1981 21.9532 68.1624 21.7174C68.3466 21.6826 68.4996 21.6154 68.6514 21.5314L68.4486 22.3924H69.5305L70.325 18.9331H70.4444H70.9508L70.2572 22.3924H71.2725L71.9649 18.9331H72.472L72.5578 18.4603H70.9856H68.1624ZM60.5872 17.9196C60.8237 17.8872 61.0265 17.7174 61.0607 17.5176C61.1123 17.2788 60.9431 17.0933 60.6719 17.0933H60.5872C60.3508 17.1275 60.1498 17.2968 60.1138 17.5176C60.064 17.736 60.2338 17.9196 60.5038 17.9196H60.5872ZM50.9509 18.1062C51.68 18.1062 52.3887 17.802 52.8117 17.3136L52.1522 16.9919C51.866 17.4474 51.4244 17.736 51.0523 17.736C50.6995 17.736 50.4451 17.4474 50.3947 16.9919L49.515 17.3136C49.668 17.802 50.2236 18.1062 50.9509 18.1062ZM68.8716 9.4678C68.9389 9.4336 69.0223 9.4162 69.0925 9.4336C69.6985 9.4336 70.0214 10.2593 69.8191 11.2716C69.6661 11.9982 69.2947 12.6229 68.8716 12.9247C68.7018 13.0435 68.517 13.1126 68.3466 13.1126C68.0436 13.1126 67.8239 12.9589 67.8726 12.7585L68.4312 9.98925C68.4816 9.75403 68.6514 9.55181 68.8716 9.4678ZM65.8462 10.1579L65.4057 12.3853C65.3385 12.6553 65.1357 12.9097 64.8825 13.0279C64.763 13.0958 64.646 13.1126 64.526 13.1126C64.019 13.1126 63.7669 12.2839 63.986 11.2716C64.1372 10.5125 64.4936 9.85604 64.8825 9.56861C65.0181 9.4834 65.1513 9.4336 65.2695 9.4336C65.6775 9.4336 65.9302 9.75403 65.8462 10.1579ZM57.1885 11.4564L55.5846 10.0397L55.1789 9.70242C55.3133 9.61782 55.4483 9.55181 55.5846 9.5008C55.7202 9.4498 55.8552 9.4162 55.9734 9.4336C56.7175 9.4336 57.2743 9.70242 57.4621 10.1579L57.1885 11.4564ZM55.5846 13.28C55.4483 13.2956 55.3133 13.2956 55.1789 13.2956C54.4685 13.2956 54.0796 12.4027 54.3166 11.2716C54.4006 10.8833 54.4853 10.6313 54.5699 10.5293L55.5846 11.373L56.9035 12.4699C56.6659 12.8923 56.1594 13.1792 55.5846 13.28ZM68.8716 6.10928H64.8825H62.7343H62.109H61.8396H61.7376L61.3487 3.52723C61.1633 2.31151 60.3178 1.48463 59.2191 1.48463C58.5596 1.48463 57.968 1.61964 57.5113 1.85607L58.0202 2.86836C58.2884 2.68175 58.5771 2.58214 58.8129 2.59774C59.3193 2.59774 59.5905 3.74625 59.7094 5.36521C59.0829 4.09908 58.2884 3.34001 57.5636 3.34001C57.2401 3.34001 56.7847 3.46002 56.2278 3.71325L56.5651 4.72434C56.8183 4.53893 57.0709 4.42011 57.2575 4.43932C57.6284 4.43932 58.1036 5.07958 58.457 6.10928H55.5846H52.22L51.9986 7.20558H55.5846H58.0526L57.581 9.61782L57.3421 8.50411C56.9203 8.36969 56.4798 8.30369 56.0082 8.31989C55.8708 8.31989 55.7202 8.33789 55.5846 8.33789C53.743 8.52211 52.0844 9.80323 51.746 11.373C51.4082 13.0435 52.7787 14.4105 54.7727 14.4105C55.0769 14.4105 55.3307 14.3931 55.5846 14.3769C56.0418 14.3439 56.4126 14.2593 56.6497 14.1417L56.4126 15.3394H58.9641L60.6052 7.20558H61.6019H61.8726H62.7343H64.8825H66.4534L66.0652 9.14677L65.6775 8.31989H64.8825H64.6784C63.986 8.31989 63.3085 8.62412 62.7343 9.09517C62.109 9.63522 61.6199 10.4129 61.4315 11.2716C61.1633 12.6229 61.7376 13.7708 62.7343 14.1249C62.9383 14.1921 63.1585 14.2245 63.3955 14.2245C64.019 14.2245 64.526 14.1567 64.8825 14.039C64.9671 14.0054 65.0181 13.9898 65.0847 13.9556L64.8825 14.9337L64.7973 15.3394H64.8825H67.3499L67.7543 13.2956L67.9422 14.2245H68.8554H68.8716C70.427 14.2095 71.9649 12.8923 72.2692 11.2716C72.6094 9.65202 71.6097 8.33789 70.0544 8.31989C69.5641 8.31989 69.1585 8.3877 68.8716 8.52211C68.8218 8.53831 68.7714 8.57251 68.7204 8.59052L68.8716 7.84644L69.0067 7.20558H73.7405L73.9607 6.10928H68.8716ZM62.6004 3.71325C62.634 3.71325 62.6838 3.69525 62.7343 3.69525C63.1897 3.64424 63.5977 3.34001 63.6481 2.97038C63.7322 2.56594 63.3955 2.2275 62.8873 2.2275C62.8369 2.2275 62.7853 2.2275 62.7343 2.24491C62.295 2.29591 61.8894 2.59774 61.8396 2.97038C61.7544 3.37421 62.076 3.71325 62.6004 3.71325ZM40.6407 11.9136C40.4871 12.5539 40.1835 13.0958 39.8798 13.3478C39.7622 13.4318 39.644 13.4822 39.542 13.4822C39.0848 13.4822 38.8807 12.7909 39.0848 11.9136C39.2534 11.238 39.5576 10.6313 39.8798 10.3103C40.0323 10.1579 40.1991 10.0739 40.3527 10.0739C40.7409 10.0739 40.8765 10.9001 40.6407 11.9136ZM32.8814 11.829C32.6774 12.1825 32.0857 12.4357 31.3416 12.5215C31.1562 12.5539 30.9372 12.5701 30.7164 12.5701C28.4175 12.5701 28.9246 10.6151 28.9246 10.1579C29.8721 10.1579 30.7494 9.90524 31.3416 9.5008C31.7491 9.21518 32.0179 8.87674 32.0857 8.50411C32.2219 7.89685 32.0179 7.3742 31.6297 7.20558H33.8109L32.8814 11.829ZM18.9846 11.964C18.8334 12.5881 18.5286 13.1456 18.2244 13.382C18.1061 13.4822 17.9885 13.5332 17.8853 13.5332C17.4299 13.5332 17.2277 12.8425 17.4299 11.964C17.5979 11.289 17.9027 10.6811 18.2244 10.3601C18.3762 10.2095 18.5454 10.1249 18.681 10.1249C19.0854 10.1249 19.2211 10.9499 18.9846 11.964ZM18.2244 6.10928H16.2124H15.8415H14.894C14.6048 5.73784 14.5052 5.2974 14.5898 4.84435C14.8094 3.89806 16.33 3.13899 17.9711 3.10419C18.0551 3.10419 18.1379 3.12219 18.2244 3.12219C20.6918 3.1888 22.4158 4.40511 22.4668 6.10928H18.2244ZM6.40742 11.829C6.2034 12.1825 5.61234 12.4357 4.85387 12.5371C4.66545 12.5539 4.46323 12.5701 4.24421 12.5701C1.96099 12.5701 2.34923 10.6649 2.46684 10.1579C3.38133 10.1579 4.25981 9.90524 4.85387 9.51761C5.27451 9.23018 5.54513 8.87674 5.61234 8.50411C5.74735 7.89685 5.56073 7.3742 5.15629 7.20558H7.33871L6.40742 11.829ZM45.7958 15.3394L47.4364 7.20558H48.7223L48.9401 6.10928H39.8798H37.8504H37.4946H31.3416H27.3014H26.9306H25.3584C25.0362 3.57703 22.2141 1.87347 18.2244 1.83987H18.0887C14.8604 1.83987 11.9526 3.15459 11.5457 4.75915C11.4107 5.3154 11.5967 5.83865 11.985 6.10928H11.3939H11.1059H4.85387H0.455441L0.237021 7.20558H2.41583C2.92588 7.20558 3.23011 7.77864 3.0771 8.50411C2.84067 9.67062 1.40354 9.65202 0.591657 9.4678C0.322231 9.95565 0.10141 10.6151 0 11.0856V11.103V11.9802C0.371436 13.6358 2.94208 14.2095 4.85387 13.7852C5.32551 13.6856 5.74735 13.5158 6.10259 13.2956L5.71435 15.271C5.41192 15.373 5.12329 15.5242 4.85387 15.7426C4.71825 15.8458 4.59824 15.9628 4.47883 16.0972C3.46653 17.3136 3.85477 18.6637 4.85387 19.3039C4.91867 19.3544 5.00508 19.3874 5.08969 19.439C6.67804 20.2328 9.18149 19.8782 9.89195 18.3247C9.46651 17.802 8.92646 17.4642 8.45301 17.1611C8.40201 18.09 7.76115 18.3595 7.2523 18.3595C5.88357 18.2755 6.2034 16.6895 7.3213 16.4525C8.82445 16.1482 10.9877 18.3091 11.7827 19.1521C12.9661 19.2037 14.2838 19.1521 15.4527 19.2037C13.5247 17.7516 10.9205 15.8458 8.2658 15.238L9.89195 7.20558H10.888H11.1569H12.1542L10.516 15.3394H13.0663L14.7074 7.20558H15.6213H15.9933H18.2244H23.2444L22.9402 8.74113H19.5595C19.1022 8.74113 18.6624 8.81014 18.2244 8.94395C16.753 9.38079 15.5037 10.5293 15.1809 11.8806C14.792 13.4996 15.7899 14.8149 17.3969 14.8329C17.6663 14.8329 17.9543 14.7819 18.2244 14.7141C19.5763 14.3769 20.7764 13.2302 21.0992 11.8806C21.2486 11.2212 21.1148 10.5641 20.708 10.0229H22.6702L21.6051 15.3394H24.1583L25.7977 7.20558H26.7104H27.065H28.8916C29.3974 7.20558 29.7017 7.77864 29.5324 8.50411C29.4148 9.11257 28.6546 9.61782 27.8607 9.61782H27.0476C26.7602 10.1087 26.5574 10.6151 26.4728 11.0856C26.0017 13.3646 29.1274 14.1567 31.3416 13.736C31.8169 13.6358 32.2381 13.4996 32.5771 13.2956L32.1541 15.3394H34.7067L36.3617 7.20558H37.2582H37.6308H39.8798H44.9005L44.5957 8.68953H41.2168C40.7565 8.68953 40.3185 8.75613 39.8798 8.89234C38.4085 9.34779 37.1742 10.4789 36.8352 11.829C36.4475 13.4492 37.4628 14.7645 39.0518 14.7819C39.338 14.7819 39.6098 14.7477 39.8798 14.6631C41.233 14.3247 42.4325 13.1792 42.7529 11.829C42.9059 11.1876 42.7691 10.5125 42.3641 9.97305H44.3431L43.2438 15.3394H45.7958Z" fill="#ED1D24"/>
</svg>
