<svg width="86" height="24" viewBox="0 0 86 24" fill="none" xmlns="http://www.w3.org/2000/svg">
<g clip-path="url(#clip0_45_4299)">
<path d="M17.7883 23.3647C17.7883 23.9296 18.5651 24 18.9886 24H19.3418C20.4006 23.9303 20.4006 23.5061 20.4006 23.3647V0.635319C20.4703 0.0696622 19.6942 0 19.2003 0H18.9914C18.565 0 17.7883 0.0696622 17.7883 0.635319V23.3647Z" fill="#E1091D"/>
<path d="M3.6001 23.3647C3.6001 23.9296 4.37684 24 4.80037 24H5.15359C6.21244 23.9303 6.21243 23.5061 6.21243 23.3647V0.635319C6.21243 0.0696622 5.50607 0 5.01216 0H4.80317C4.3058 0 3.6001 0.0696622 3.6001 0.635319V23.3647Z" fill="#E1091D"/>
<path d="M8.32947 23.3647C8.32947 23.9296 9.10624 24 9.52979 24H9.95332C11.0122 23.9303 11.0122 23.5061 11.0122 23.3647V0.635319C11.0122 0.0696622 10.2355 0 9.81193 0H9.52979C9.10624 0 8.32947 0.0696622 8.32947 0.635319V23.3647Z" fill="#E1091D"/>
<path d="M13.0588 23.3647C13.0588 23.9296 13.8356 24 14.2591 24H14.6123C15.6711 23.9303 15.6712 23.5061 15.6712 23.3647V0.635319C15.6712 0.0696622 14.8944 0 14.4709 0H14.2619C13.8356 0 13.0588 0.0696622 13.0588 0.635319V23.3647Z" fill="#E1091D"/>
<path d="M0.635313 10.6589C0.069672 10.6589 0 11.4357 0 11.8592V12.2828C0.069671 13.3416 0.493908 13.3416 0.635313 13.3416H23.3647C23.9296 13.3416 24 12.5649 24 12.1413V11.8592C24 11.4357 23.9303 10.6589 23.3647 10.6589H0.635313Z" fill="#E1091D"/>
<path d="M57.1056 19.1997C53.3647 19.1997 51.9506 17.1523 51.9506 11.8587C51.9506 6.63403 53.2915 4.72947 57.0359 4.72947H57.1753C60.8458 4.72947 62.2606 6.63543 62.2606 11.8587C62.1909 17.153 60.7781 19.1997 57.1056 19.1997ZM57.1056 1.76465C50.7524 1.76465 47.8586 4.94124 47.8586 11.9291C47.8586 18.8465 50.8234 22.1645 56.8938 22.2349H57.1759C63.3173 22.2349 66.2815 18.8465 66.2815 11.9291C66.2815 4.87019 63.4588 1.76465 57.1056 1.76465Z" fill="#002469"/>
<path d="M31.4825 20.6821C32.7531 21.6706 34.5176 22.0941 37.341 22.0941H37.4803C40.3037 22.0941 42.0683 21.6706 43.41 20.6821C45.2449 19.2707 45.6002 17.58 45.6002 14.4V2.89456C45.6087 2.79084 45.5945 2.6865 45.5584 2.58889C45.5223 2.49128 45.4652 2.40277 45.3912 2.3296C45.1056 2.04538 44.4702 1.90605 43.4114 1.90605C42.7461 1.82111 42.0721 1.9709 41.5055 2.3296C41.4314 2.40277 41.3744 2.49128 41.3383 2.58889C41.3022 2.6865 41.2878 2.79084 41.2964 2.89456V14.8946C41.2964 16.8709 41.2965 17.2944 40.379 18.0712C39.4724 18.6387 38.4116 18.9101 37.3438 18.8479C36.2723 18.944 35.2003 18.6685 34.3079 18.0677C33.3905 17.362 33.3905 16.9384 33.3905 14.9621V2.89456C33.399 2.79084 33.3848 2.6865 33.3487 2.58889C33.3126 2.49128 33.2555 2.40277 33.1815 2.3296C32.6135 1.96978 31.9375 1.81995 31.2707 1.90605C30.6054 1.82111 29.9314 1.9709 29.3647 2.3296C29.2907 2.40277 29.2336 2.49128 29.1975 2.58889C29.1614 2.6865 29.1472 2.79084 29.1557 2.89456V14.4C29.2951 17.5766 29.5792 19.2707 31.4852 20.6821" fill="#002469"/>
<path d="M77.2226 19.1299H72.705V13.1299H77.5047C80.1874 13.1299 80.6813 14.2591 80.6813 16.1651C80.7509 18.7064 79.8342 19.1299 77.2226 19.1299ZM72.705 4.80041H77.2929C79.6927 4.80041 79.8342 6.00069 79.8342 7.55346C79.8342 9.45941 78.9871 10.2355 76.9404 10.2355H72.705V4.80041ZM82.2347 3.10623C81.1759 2.32949 79.9052 2.04736 77.435 2.04736H69.2462C69.0592 2.04773 68.8799 2.12219 68.7476 2.25446C68.6154 2.38672 68.5409 2.566 68.5405 2.75304V21.3884C68.5409 21.5754 68.6154 21.7547 68.7476 21.8869C68.8799 22.0192 69.0592 22.0937 69.2462 22.094H77.8579C80.1874 22.094 81.8105 22.0244 83.2218 20.9648C84.7746 19.7645 85.0574 17.8593 85.0574 16.4472C85.1092 15.6635 84.9766 14.8785 84.6701 14.1553C84.3637 13.4321 83.892 12.7908 83.2929 12.2828C82.7881 11.9538 82.2421 11.6927 81.6691 11.5061L81.3159 11.3668L81.6691 11.2274C83.3632 10.4507 83.9282 9.32148 83.9282 7.1334C83.8586 6.00417 83.6461 4.09822 82.234 3.10971" fill="#002469"/>
</g>
<defs>
<clipPath id="clip0_45_4299">
<rect width="85.0684" height="24" fill="white"/>
</clipPath>
</defs>
</svg>
