<svg width="127" height="24" viewBox="0 0 127 24" fill="none" xmlns="http://www.w3.org/2000/svg">
<path d="M0 0C0.677201 0.285913 1.12174 2.03478 1.12174 2.03478L5.32174 16.6435C5.80591 18.4717 7.33774 19.4348 9.05218 19.4348H18.2609C17.6014 19.3169 16.8783 17.3739 16.8783 17.3739L12.2087 2.84348C11.5367 0.624 10.4035 0 8.68696 0H0ZM38.9739 0C37.2532 0 36.1398 0.624 35.4783 2.84348L30.7826 17.3739C30.7826 17.3739 30.0668 19.3169 29.4 19.4348H38.6087C40.3315 19.4348 41.8487 18.4717 42.3391 16.6435L46.5391 2.03478C46.5391 2.03478 46.9972 0.285913 47.687 0H38.9739ZM18.7304 0.104348V19.4348H28.9826V0.104348H18.7304Z" fill="#ED1A3A"/>
<path d="M79.2782 4.35645L75.2347 4.74775V6.88688H73.5912V9.02601H75.2347V15.626C75.2347 16.6643 75.4309 17.4427 75.7825 17.9738C76.1551 18.5206 76.6799 18.9411 77.3999 19.2521C78.1189 19.5756 79.1405 19.7217 80.4521 19.7217C81.0083 19.7217 81.7596 19.6236 82.7217 19.3825V17.2956C82.2479 17.3884 81.841 17.4521 81.4956 17.4521C80.7672 17.4521 80.2027 17.3008 79.826 16.9825C79.4514 16.6695 79.2782 16.0591 79.2782 15.1564V9.02601H82.4608V6.88688H79.2782V4.35645ZM53.3217 6.59992C51.7721 6.59992 50.4625 6.88688 49.4086 7.46079C48.3485 8.03158 47.5637 8.8121 47.0086 9.80862C46.4535 10.8062 46.1738 11.9039 46.1738 13.0695C46.1738 14.3342 46.4921 15.5238 47.139 16.5912C47.7891 17.6681 48.7377 18.4497 49.9564 18.9651C51.1658 19.4775 52.5745 19.7217 54.1825 19.7217C55.8907 19.7217 57.6782 19.4963 59.5825 19.0173V16.6695C57.9025 17.1693 56.3832 17.426 55.0434 17.426C53.9978 17.426 53.186 17.2684 52.5651 16.9825C51.9464 16.6966 51.4403 16.3199 51.0782 15.8347C50.715 15.3495 50.4959 14.6754 50.3999 13.826H59.6347C59.5992 11.0483 59.0274 9.16271 57.8869 8.13905C56.7558 7.11958 55.227 6.59992 53.3217 6.59992ZM67.4086 6.59992C65.3279 6.59992 63.7804 6.95262 62.7651 7.66949C61.7488 8.37071 61.2521 9.2754 61.2521 10.3564C61.2521 11.2664 61.5631 11.9853 62.2434 12.5478C62.9091 13.1269 63.9662 13.6653 65.3738 14.1391L66.7304 14.5825C67.4211 14.8048 67.922 15.0552 68.2695 15.2869C68.6013 15.5363 68.7651 15.8378 68.7651 16.1999C68.7651 16.6079 68.5356 16.921 68.0869 17.1912C67.6413 17.4584 67.0299 17.6086 66.2869 17.6086C64.873 17.6086 63.1763 17.2528 61.1738 16.5651V19.0434C63.0124 19.4984 64.8156 19.7217 66.5738 19.7217C68.6378 19.7217 70.2083 19.3189 71.2956 18.5217C72.3756 17.7276 72.913 16.8145 72.913 15.7564C72.913 14.9519 72.6145 14.2538 72.026 13.6695C71.425 13.0904 70.1728 12.4956 68.2434 11.8695L67.0695 11.4782C66.3693 11.2611 65.8893 11.0514 65.6347 10.826C65.3613 10.5923 65.2173 10.3105 65.2173 10.0173C65.2173 9.6354 65.4229 9.33906 65.8434 9.10427C66.2566 8.86532 66.8869 8.73905 67.7217 8.73905C68.7944 8.73905 70.1415 8.9561 71.7651 9.39123V7.0434C70.081 6.74392 68.6295 6.59992 67.4086 6.59992ZM93.5217 6.59992C92.4208 6.59992 91.4535 6.83158 90.6521 7.27819C89.8497 7.73523 89.2048 8.38636 88.6956 9.28688V6.88688H84.6521V23.9999H88.6956V18.1304C89.2392 18.5895 89.7224 18.9307 90.1304 19.1217C90.5467 19.321 90.9537 19.4848 91.4086 19.5912C91.8542 19.6945 92.3665 19.7217 92.8956 19.7217C94.8897 19.7217 96.4267 19.058 97.5391 17.7391C98.6483 16.4264 99.2086 14.8006 99.2086 12.8347C99.2086 10.97 98.7161 9.46427 97.7217 8.32166C96.7293 7.17801 95.3248 6.59992 93.5217 6.59992ZM106.774 6.59992C104.962 6.59992 103.149 6.8994 101.322 7.48688V9.83471C102.924 9.08966 104.506 8.71297 106.043 8.71297C106.823 8.71297 107.469 8.8434 107.974 9.10427C108.488 9.37349 108.73 9.89732 108.73 10.6695V11.7912H107.661C104.964 11.7912 103.024 12.1971 101.817 13.0173C100.623 13.8479 100.017 14.8893 100.017 16.1217C100.017 17.1307 100.42 17.9707 101.217 18.6782C102.023 19.3721 103.092 19.7217 104.426 19.7217C104.944 19.7217 105.424 19.6664 105.887 19.5651C106.345 19.4587 106.795 19.3304 107.217 19.1217C107.641 18.9109 108.166 18.578 108.756 18.1043H108.913C109.197 18.7721 109.63 19.1999 110.165 19.4086C110.703 19.6225 111.344 19.7217 112.096 19.7217C112.754 19.7217 113.509 19.6309 114.365 19.4086L114.313 17.5043C114.089 17.5293 113.89 17.5304 113.739 17.5304C113.49 17.5304 113.236 17.4511 112.983 17.2956C112.733 17.1495 112.617 16.7551 112.617 16.0695V10.513C112.617 9.46219 112.348 8.69001 111.835 8.16514C111.312 7.63819 110.618 7.24584 109.748 6.99123C108.875 6.74079 107.874 6.59992 106.774 6.59992ZM122.713 6.59992C120.112 6.59992 118.106 7.21453 116.765 8.42601C115.418 9.63749 114.756 11.2194 114.756 13.1478C114.756 14.9958 115.387 16.5683 116.661 17.8434C117.931 19.1008 119.841 19.7217 122.374 19.7217C123.8 19.7217 125.339 19.5516 126.991 19.1738V16.826C125.736 17.233 124.524 17.4521 123.339 17.4521C122.521 17.4521 121.777 17.2778 121.122 16.9564C120.468 16.6319 119.968 16.1238 119.609 15.4173C119.239 14.7119 119.061 13.9429 119.061 13.1217C119.061 12.0657 119.369 11.0838 120 10.1999C120.631 9.31297 121.631 8.89558 123 8.89558C123.966 8.89558 125.265 9.11679 126.887 9.57384V7.09558C125.312 6.75853 123.923 6.59992 122.713 6.59992ZM53.1912 8.73905C53.9081 8.73905 54.4924 8.97801 54.939 9.46949C55.3908 9.95888 55.6173 10.7644 55.6173 11.8956H50.3477C50.474 10.8594 50.7881 10.0872 51.2869 9.54775C51.7888 9.00932 52.4211 8.73905 53.1912 8.73905ZM92.0347 9.28688C92.9582 9.28688 93.6531 9.64792 94.1478 10.3304C94.6486 11.0107 94.9043 11.9467 94.9043 13.1217C94.9043 14.2726 94.6434 15.2775 94.1217 16.1738C93.5999 17.0629 92.8215 17.5043 91.7477 17.5043C91.2448 17.5043 90.7439 17.4093 90.2608 17.2173C89.7735 17.0201 89.2528 16.6538 88.6956 16.1217V11.1912C89.187 10.6017 89.7077 10.1436 90.2869 9.80862C90.8712 9.4674 91.4639 9.28688 92.0347 9.28688ZM107.791 13.7478H108.73V16.2782C108.239 16.6559 107.755 16.9241 107.269 17.113C106.785 17.3102 106.303 17.426 105.835 17.426C105.313 17.426 104.871 17.2622 104.478 16.9564C104.101 16.6497 103.904 16.2657 103.904 15.7825C103.904 15.1971 104.233 14.7088 104.869 14.3217C105.51 13.9366 106.481 13.7478 107.791 13.7478Z" fill="#2D373C"/>
</svg>
