<svg width="29" height="24" viewBox="0 0 29 24" fill="none" xmlns="http://www.w3.org/2000/svg">
<g clip-path="url(#clip0_45_4291)">
<path d="M22.5738 8.58159C22.5738 10.2791 22.0704 11.9384 21.1272 13.3498C20.1841 14.7611 18.8435 15.861 17.2751 16.5104C15.7068 17.1598 13.9811 17.3294 12.3163 16.9979C10.6515 16.6664 9.12238 15.8486 7.92242 14.648C6.72246 13.4473 5.90552 11.9178 5.57495 10.2528C5.24438 8.5878 5.41501 6.86218 6.06528 5.29418C6.71555 3.72619 7.81623 2.38627 9.2281 1.4439C10.64 0.501523 12.2996 -0.000960642 13.9971 1.37878e-06C16.2723 0.000968581 18.454 0.905561 20.0624 2.51485C21.6708 4.12414 22.5741 6.30635 22.5738 8.58159Z" fill="white"/>
<path d="M14.0031 16.7606C15.6199 16.7602 17.2003 16.2803 18.5444 15.3817C19.8885 14.4832 20.936 13.2062 21.5544 11.7124C22.1729 10.2185 22.3345 8.57486 22.0189 6.98916C21.7033 5.40347 20.9245 3.94696 19.7812 2.80379C18.6379 1.66062 17.1812 0.882125 15.5955 0.566732C14.0098 0.251339 12.3661 0.413208 10.8723 1.03188C9.37858 1.65055 8.10181 2.69823 7.20344 4.04247C6.30506 5.38671 5.82544 6.96714 5.8252 8.58394C5.82472 9.65796 6.03592 10.7215 6.44675 11.7139C6.85757 12.7062 7.45996 13.6079 8.21946 14.3672C8.97896 15.1266 9.88068 15.7289 10.8731 16.1396C11.8655 16.5502 12.9291 16.7613 14.0031 16.7606Z" fill="#0869AB"/>
<mask id="mask0_45_4291" style="mask-type:luminance" maskUnits="userSpaceOnUse" x="5" y="0" width="18" height="17">
<path d="M5.8252 8.58761C5.82495 10.2043 6.30413 11.7848 7.20213 13.1292C8.10013 14.4736 9.37663 15.5215 10.8702 16.1404C12.3637 16.7593 14.0073 16.9214 15.593 16.6063C17.1787 16.2911 18.6353 15.5128 19.7787 14.3698C20.9221 13.2267 21.7008 11.7703 22.0164 10.1847C22.3321 8.59913 22.1704 6.95554 21.552 5.46179C20.9335 3.96805 19.886 2.69124 18.5419 1.79284C17.1977 0.894442 15.6174 0.414792 14.0007 0.414551C12.9272 0.414232 11.8641 0.625399 10.8722 1.03599C9.88036 1.44658 8.97908 2.04855 8.21989 2.80753C7.46069 3.5665 6.85845 4.4676 6.44756 5.45936C6.03668 6.45112 5.8252 7.5141 5.8252 8.58761Z" fill="white"/>
</mask>
<g mask="url(#mask0_45_4291)">
<path d="M14.0724 12.5269C17.669 12.5269 20.7451 13.5312 22.0692 14.9526C22.5197 13.9087 22.7514 12.7836 22.7501 11.6466C22.7501 6.95219 18.8593 3.15625 14.0724 3.15625C9.28558 3.15625 5.40088 6.95584 5.40088 11.6491C5.40068 12.7852 5.6328 13.9094 6.08298 14.9526C7.40463 13.5325 10.4844 12.5269 14.0724 12.5269Z" fill="#0869AB"/>
<path d="M14.0724 12.5367C17.6592 12.5367 20.7281 13.5325 22.0473 14.9429C22.4979 13.9072 22.7293 12.7895 22.7269 11.6601C22.7269 7.00451 18.8508 3.22681 14.0724 3.22681C9.29405 3.22681 5.42151 7.00694 5.42151 11.6625C5.42051 12.7921 5.65272 13.9097 6.10361 14.9453C7.4204 13.5325 10.4917 12.5367 14.0724 12.5367Z" fill="#0D6BAD"/>
<path d="M14.0725 12.5453C17.6508 12.5453 20.7111 13.5338 22.0279 14.9296C22.476 13.9043 22.7066 12.7973 22.7051 11.6783C22.7051 7.05805 18.8387 3.30103 14.0725 3.30103C9.30628 3.30103 5.43982 7.0617 5.43982 11.6796C5.43991 12.7983 5.67174 13.9049 6.12071 14.9296C7.43263 13.5325 10.4978 12.5453 14.0688 12.5453" fill="#0F6EAD"/>
<path d="M14.0725 12.5597C17.6422 12.5597 20.6941 13.5397 22.0072 14.9258C22.4537 13.9086 22.6835 12.8097 22.682 11.6988C22.682 7.11867 18.8265 3.37866 14.0725 3.37866C9.31842 3.37866 5.46655 7.1211 5.46655 11.7013C5.46683 12.8116 5.6983 13.9098 6.14622 14.9258C7.45206 13.5324 10.5075 12.5597 14.0725 12.5597Z" fill="#1270B0"/>
<path d="M14.0724 12.5597C17.6325 12.5597 20.6782 13.5324 21.9865 14.9063C22.4305 13.8988 22.6591 12.8096 22.6576 11.7086C22.6576 7.16609 18.8106 3.44067 14.0688 3.44067C9.32688 3.44067 5.48474 7.16366 5.48474 11.7086C5.48465 12.8096 5.71493 13.8984 6.16076 14.9051C7.46904 13.5324 10.5148 12.5597 14.0724 12.5597Z" fill="#1473B2"/>
<path d="M14.0724 12.5731C17.6227 12.5731 20.66 13.5361 21.9646 14.9003C22.4091 13.9015 22.6383 12.8202 22.637 11.7269C22.637 7.22087 18.8009 3.51978 14.0712 3.51978C9.34145 3.51978 5.51025 7.22452 5.51025 11.7293C5.51062 12.8223 5.74052 13.903 6.18506 14.9015C7.48604 13.5373 10.5269 12.5743 14.0712 12.5743" fill="#1775B2"/>
<path d="M14.0725 12.5817C17.6143 12.5817 20.6382 13.5374 21.9452 14.8918C22.3884 13.9016 22.6171 12.8288 22.6164 11.744C22.6164 7.27687 18.7888 3.59766 14.0725 3.59766C9.35613 3.59766 5.53345 7.28416 5.53345 11.7513C5.53395 12.8357 5.76305 13.9079 6.20582 14.8979C7.50558 13.5447 10.5367 12.5878 14.0725 12.5878" fill="#1A78B5"/>
<path d="M14.0651 12.5914C17.5972 12.5914 20.6187 13.5386 21.9172 14.8797C22.3587 13.8981 22.5859 12.8337 22.5835 11.7574C22.5835 7.32795 18.7669 3.66333 14.0615 3.66333C9.35608 3.66333 5.55042 7.3316 5.55042 11.761C5.55026 12.8366 5.77948 13.8998 6.22279 14.8797C7.5189 13.5423 10.5428 12.5914 14.0676 12.5914" fill="#1C7AB5"/>
<path d="M14.0652 12.6C17.5912 12.6 20.6017 13.5386 21.8954 14.8676C22.3383 13.8962 22.5668 12.8408 22.5653 11.7732C22.5653 7.38271 18.7585 3.73511 14.0652 3.73511C9.37196 3.73511 5.56995 7.38271 5.56995 11.7756C5.56927 12.8431 5.79773 13.8984 6.23989 14.87C7.53235 13.5399 10.5477 12.6024 14.064 12.6024" fill="#1C7DB8"/>
<path d="M14.064 12.6095C17.5778 12.6095 20.5834 13.5409 21.8747 14.8589C22.3153 13.8963 22.543 12.8499 22.5422 11.7912C22.5422 7.43722 18.7438 3.80786 14.064 3.80786C9.38408 3.80786 5.59058 7.43966 5.59058 11.7912C5.59066 12.8499 5.81874 13.8962 6.2593 14.8589C7.54934 13.5409 10.5586 12.6095 14.064 12.6095Z" fill="#1F80B8"/>
<path d="M14.0627 12.6181C17.568 12.6181 20.5664 13.5409 21.854 14.8468C22.2933 13.8937 22.5202 12.8565 22.519 11.8071C22.519 7.49077 18.7328 3.88086 14.0627 3.88086C9.39255 3.88086 5.61121 7.4932 5.61121 11.8083C5.61168 12.8578 5.8394 13.8948 6.27872 14.848C7.5651 13.5421 10.5659 12.6193 14.0603 12.6193" fill="#2182BA"/>
<path d="M14.0602 12.6278C17.5546 12.6278 20.5457 13.5422 21.8296 14.8371C22.2681 13.8928 22.4951 12.8641 22.4947 11.8229C22.4947 7.54431 18.717 3.95264 14.0614 3.95264C9.40589 3.95264 5.63306 7.54674 5.63306 11.8302C5.63292 12.871 5.8599 13.8992 6.29814 14.8432C7.57966 13.5483 10.5731 12.6339 14.0602 12.6339" fill="#2485BA"/>
<path d="M14.0603 12.6364C17.5462 12.6364 20.5287 13.5422 21.809 14.825C22.247 13.8896 22.4732 12.8692 22.4717 11.8364C22.4717 7.59663 18.7025 4.02441 14.0615 4.02441C9.42057 4.02441 5.65503 7.59906 5.65503 11.8376C5.65599 12.87 5.883 13.8897 6.32011 14.825C7.59799 13.541 10.5842 12.6364 14.0628 12.6364" fill="#298ABD"/>
<path d="M14.059 12.6462C17.5352 12.6462 20.5092 13.5435 21.7871 14.8165C22.223 13.89 22.4484 12.8786 22.4473 11.8547C22.4473 7.6514 18.6915 4.09863 14.0578 4.09863C9.42415 4.09863 5.66833 7.65505 5.66833 11.8547C5.66857 12.8785 5.8944 13.8898 6.32977 14.8165C7.60643 13.5435 10.5853 12.6462 14.0517 12.6462" fill="#2B8CBF"/>
<path d="M14.0578 12.6545C17.5255 12.6545 20.4922 13.5445 21.7664 14.8054C22.2006 13.8879 22.4253 12.8853 22.4242 11.8703C22.4242 7.70591 18.6781 4.17139 14.0578 4.17139C9.43751 4.17139 5.69507 7.70834 5.69507 11.8703C5.6957 12.8854 5.92117 13.8877 6.35528 14.8054C7.6283 13.5445 10.5987 12.6545 14.0566 12.6545" fill="#2E8FBF"/>
<path d="M14.0567 12.6643C17.5146 12.6643 20.474 13.5458 21.7446 14.7957C22.1782 13.8871 22.403 12.8929 22.4024 11.8861C22.4024 7.75946 18.666 4.24438 14.0567 4.24438C9.44732 4.24438 5.71704 7.76311 5.71704 11.8885C5.71724 12.8945 5.94197 13.8877 6.37483 14.7957C7.64297 13.5458 10.606 12.6643 14.0567 12.6643Z" fill="#2E91C2"/>
<path d="M14.0554 12.6728C17.5048 12.6728 20.4557 13.5458 21.7227 14.7836C22.1551 13.8845 22.3791 12.8996 22.378 11.902C22.378 7.81421 18.6502 4.31616 14.0554 4.31616C9.46065 4.31616 5.73767 7.81786 5.73767 11.902C5.7381 12.8997 5.9629 13.8845 6.39545 14.7836C7.66117 13.5458 10.6157 12.6728 14.0554 12.6728Z" fill="#3394C2"/>
<path d="M14.0542 12.6814C17.4939 12.6814 20.4375 13.5471 21.7008 14.7727C22.133 13.8827 22.3571 12.906 22.3561 11.9166C22.3561 7.86653 18.6392 4.38794 14.0554 4.38794C9.47156 4.38794 5.75952 7.86775 5.75952 11.9178C5.75908 12.9073 5.98228 13.884 6.41244 14.7751C7.67573 13.5483 10.6206 12.6838 14.0529 12.6838" fill="#3396C2"/>
<path d="M14.053 12.6924C17.483 12.6924 20.4193 13.5435 21.6777 14.7593C22.1089 13.879 22.3323 12.9115 22.3307 11.9312C22.3307 7.91885 18.6247 4.4585 14.0518 4.4585C9.47896 4.4585 5.78394 7.91885 5.78394 11.9312C5.78469 12.9115 6.00882 13.8787 6.43929 14.7593C7.69771 13.5435 10.6352 12.6924 14.0579 12.6924" fill="#3699C4"/>
<path d="M14.0518 12.7009C17.4745 12.7009 20.4023 13.552 21.657 14.7545C22.087 13.8829 22.3101 12.9238 22.3087 11.9519C22.3087 7.97606 18.6125 4.53516 14.0518 4.53516C9.49107 4.53516 5.80457 7.97728 5.80457 11.9519C5.80525 12.9214 6.02732 13.8779 6.45384 14.7484C7.70861 13.5435 10.6401 12.6948 14.0518 12.6948" fill="#389CC7"/>
<path d="M14.0505 12.7104C17.4635 12.7104 20.3828 13.5518 21.6339 14.7434C22.0627 13.8809 22.2857 12.9308 22.2856 11.9676C22.2856 8.02936 18.5979 4.60791 14.0505 4.60791C9.50318 4.60791 5.82153 8.03179 5.82153 11.9676C5.82157 12.9323 6.04461 13.884 6.47324 14.7482C7.72558 13.5567 10.6473 12.7153 14.0517 12.7153" fill="#3DA1C9"/>
<path d="M14.0506 12.7202C17.455 12.7202 20.3731 13.5519 21.6133 14.7325C22.0414 13.8794 22.2637 12.9379 22.2626 11.9834C22.2626 8.08412 18.5858 4.67969 14.0506 4.67969C9.51542 4.67969 5.84351 8.08412 5.84351 11.9834C5.84417 12.9375 6.06599 13.8785 6.49156 14.7325C7.74147 13.5519 10.6559 12.7202 14.0506 12.7202Z" fill="#40A3C9"/>
<path d="M14.0481 12.7288C17.4416 12.7288 20.3475 13.5519 21.5865 14.7228C22.0123 13.8781 22.2338 12.9452 22.2333 11.9992C22.2333 8.13766 18.5675 4.75146 14.0433 4.75146C9.51901 4.75146 5.85925 8.13766 5.85925 11.9992C5.85953 12.9451 6.08104 13.8778 6.50609 14.7228C7.75236 13.5531 10.6595 12.7288 14.0445 12.7288" fill="#42A6CC"/>
<path d="M14.0481 12.7373C17.4331 12.7373 20.3293 13.5532 21.5707 14.7095C21.9957 13.8746 22.2166 12.9507 22.2151 12.0139C22.2151 8.18998 18.559 4.82202 14.0481 4.82202C9.53724 4.82202 5.88721 8.18998 5.88721 12.0127C5.88693 12.9498 6.10771 13.8737 6.53162 14.7095C7.77302 13.5519 10.6729 12.7373 14.0481 12.7373Z" fill="#45A8CC"/>
<path d="M14.0458 12.7471C17.4222 12.7471 20.3099 13.5532 21.5489 14.701C21.9734 13.8733 22.1939 12.9562 22.1921 12.0261C22.1921 8.23985 18.5445 4.89136 14.0458 4.89136C9.54704 4.89136 5.90552 8.24107 5.90552 12.0261C5.90482 12.9561 6.12528 13.8729 6.54871 14.701C7.78768 13.5532 10.6827 12.7471 14.0445 12.7471" fill="#47ABCF"/>
<path d="M14.0457 12.7566C17.4124 12.7566 20.294 13.5555 21.5269 14.6911C21.9502 13.8743 22.1708 12.9677 22.1701 12.0478C22.1701 8.29926 18.5335 4.97021 14.0457 4.97021C9.55794 4.97021 5.92615 8.30413 5.92615 12.0466C5.92715 12.9663 6.14766 13.8725 6.56934 14.6899C7.80223 13.5555 10.6863 12.7554 14.0445 12.7554" fill="#4AADD1"/>
<path d="M14.0445 12.7652C17.4015 12.7652 20.2746 13.5567 21.505 14.6802C21.9274 13.8731 22.1476 12.9757 22.147 12.0648C22.147 8.35401 18.5188 5.04199 14.0445 5.04199C9.57007 5.04199 5.948 8.35401 5.948 12.0624C5.94907 12.9738 6.16925 13.8717 6.58998 14.6802C7.82043 13.5567 10.6972 12.7652 14.0445 12.7652Z" fill="#4AB0D1"/>
<path d="M14.0432 12.7749C17.3905 12.7749 20.2575 13.5567 21.4843 14.6705C21.9051 13.8696 22.1242 12.9781 22.1226 12.0734C22.1226 8.40145 18.5054 5.10889 14.0432 5.10889C9.58098 5.10889 5.96985 8.40145 5.96985 12.0722C5.97064 12.9752 6.19007 13.8646 6.6094 14.6644C7.83742 13.5507 10.7044 12.7688 14.0432 12.7688" fill="#4FB2D4"/>
<path d="M14.0421 12.7835C17.3796 12.7835 20.243 13.558 21.4588 14.6596C21.879 13.8702 22.0982 12.9895 22.0972 12.0953C22.0972 8.45988 18.4897 5.18677 14.0396 5.18677C9.58956 5.18677 5.98816 8.45988 5.98816 12.0941C5.98893 12.9883 6.20761 13.8689 6.62527 14.6596C7.85087 13.558 10.7106 12.7835 14.0421 12.7835Z" fill="#54BAD6"/>
<path d="M14.0408 12.7933C17.3699 12.7933 20.2211 13.5593 21.4382 14.6487C21.8571 13.869 22.076 12.9975 22.0753 12.1124C22.0753 8.51586 18.4788 5.26099 14.0408 5.26099C9.60292 5.26099 6.01611 8.51586 6.01611 12.1124C6.01659 12.9976 6.23498 13.8691 6.65201 14.6499C7.86788 13.5556 10.7264 12.7945 14.0457 12.7945" fill="#54BDD6"/>
<path d="M14.0396 12.8031C17.3589 12.8031 20.2028 13.5605 21.4187 14.639C21.836 13.8679 22.0545 13.005 22.0546 12.1282C22.0546 8.56819 18.4678 5.33276 14.0408 5.33276C9.61381 5.33276 6.03308 8.56819 6.03308 12.1258C6.03402 13.0031 6.25207 13.8665 6.66776 14.639C7.88363 13.5605 10.73 12.8031 14.0408 12.8031" fill="#59BFD9"/>
<path d="M14.0384 12.8114C17.3492 12.8114 20.1834 13.5603 21.3956 14.6279C21.8119 13.8661 22.0297 13.0119 22.0291 12.1439C22.0291 8.61784 18.452 5.40552 14.0372 5.40552C9.62238 5.40552 6.04773 8.6227 6.04773 12.1414C6.04808 13.01 6.26541 13.8647 6.67998 14.6279C7.89585 13.5603 10.7313 12.8114 14.0323 12.8114" fill="#59C2D9"/>
<path d="M14.0384 12.832C17.3431 12.832 20.176 13.5774 21.387 14.6364C21.8022 13.88 22.0196 13.031 22.0193 12.1682C22.0193 8.67014 18.4471 5.47119 14.0384 5.47119C9.62962 5.47119 6.0647 8.66892 6.0647 12.167C6.06614 13.03 6.28348 13.8789 6.69695 14.6364C7.91281 13.5774 10.7434 12.832 14.0396 12.832" fill="#5EC2DB"/>
<path d="M14.0384 12.8527C17.3395 12.8527 20.1676 13.5932 21.3749 14.6449C21.7903 13.8943 22.0079 13.0504 22.0072 12.1925C22.0072 8.71636 18.441 5.53687 14.0384 5.53687C9.63574 5.53687 6.07446 8.71757 6.07446 12.1913C6.07615 13.0491 6.29313 13.8928 6.7055 14.6449C7.92137 13.5932 10.7458 12.8527 14.0384 12.8527Z" fill="#63C4DB"/>
<path d="M14.0384 12.8735C17.3359 12.8735 20.1591 13.609 21.3665 14.6547C21.7796 13.9107 21.9967 13.0739 21.9975 12.223C21.9975 8.7699 18.435 5.60864 14.0384 5.60864C9.64186 5.60864 6.08667 8.7699 6.08667 12.2217C6.08863 13.0724 6.30526 13.9088 6.71649 14.6535C7.92628 13.609 10.752 12.8722 14.0384 12.8722" fill="#69C7DE"/>
<path d="M14.0384 12.8941C17.3309 12.8941 20.1517 13.6236 21.3554 14.6644C21.7682 13.9248 21.985 13.0919 21.9853 12.2448C21.9853 8.81367 18.4276 5.67188 14.0371 5.67188C9.64664 5.67188 6.09631 8.81489 6.09631 12.2376C6.09707 13.0855 6.31338 13.9194 6.72492 14.6608C7.93349 13.6212 10.7543 12.8905 14.0371 12.8905" fill="#6EC9DE"/>
<path d="M14.0384 12.9148C17.3212 12.9148 20.1433 13.6443 21.3458 14.673C21.7579 13.9388 21.9748 13.1111 21.9756 12.2692C21.9756 8.86476 18.4228 5.73755 14.0384 5.73755C9.65399 5.73755 6.10852 8.86232 6.10852 12.268C6.11051 13.1104 6.32683 13.9384 6.73713 14.6742C7.94327 13.6407 10.7604 12.916 14.0396 12.916" fill="#73CCE0"/>
<path d="M14.0384 12.9367C17.3213 12.9367 20.1336 13.6577 21.3336 14.6827C21.7447 13.9539 21.9612 13.1315 21.9623 12.2947C21.9623 8.90977 18.4131 5.80444 14.036 5.80444C9.65889 5.80444 6.11829 8.9122 6.11829 12.2935C6.12005 13.1306 6.33648 13.9532 6.74689 14.6827C7.9506 13.6577 10.7593 12.9367 14.0421 12.9367" fill="#7ACFE0"/>
<path d="M14.0384 12.9574C17.3212 12.9574 20.1262 13.6736 21.3263 14.6925C21.7367 13.9696 21.9528 13.1528 21.9537 12.3215C21.9537 8.95966 18.4106 5.87744 14.0384 5.87744C9.66613 5.87744 6.13525 8.96452 6.13525 12.3215C6.1375 13.1528 6.35311 13.9696 6.76142 14.6937C7.96392 13.6748 10.7738 12.9587 14.0445 12.9587" fill="#80CFE3"/>
<path d="M14.0384 12.9781C17.3127 12.9781 20.1177 13.6894 21.3154 14.701C21.7248 13.9839 21.941 13.1728 21.9427 12.3471C21.9427 9.00709 18.4034 5.93945 14.0396 5.93945C9.67586 5.93945 6.13647 9.00708 6.13647 12.3434C6.1386 13.1701 6.3543 13.9822 6.76265 14.701C7.96271 13.6894 10.775 12.9781 14.036 12.9781" fill="#85D1E3"/>
<path d="M14.0385 12.9988C17.3091 12.9988 20.1093 13.7052 21.3057 14.7095C21.7145 13.9976 21.9304 13.1912 21.9319 12.3702C21.9319 9.0533 18.3986 6.00391 14.0385 6.00391C9.67835 6.00391 6.15112 9.0533 6.15112 12.3678C6.1531 13.1895 6.3689 13.9965 6.77729 14.7095C7.97492 13.7052 10.7787 12.9988 14.0397 12.9988" fill="#8AD4E5"/>
<path d="M14.0384 13.0193C17.303 13.0193 20.1019 13.7208 21.2959 14.7215C21.7041 14.0155 21.92 13.2147 21.9221 12.3992C21.9221 9.10538 18.396 6.07666 14.0384 6.07666C9.6807 6.07666 6.16077 9.10782 6.16077 12.3992C6.16332 13.2147 6.3783 14.0155 6.78451 14.7227C7.98214 13.7245 10.7823 13.0205 14.0384 13.0205" fill="#8FD6E5"/>
<path d="M14.0384 13.0399C17.2994 13.0399 20.0934 13.7366 21.2862 14.7263C21.6942 14.0247 21.9094 13.2278 21.9099 12.4162C21.9099 9.14428 18.3839 6.13379 14.0384 6.13379C9.69289 6.13379 6.16931 9.15522 6.16931 12.4198C6.17152 13.231 6.38615 14.0275 6.79183 14.73C7.98703 13.739 10.7823 13.0423 14.0348 13.0423" fill="#94D6E8"/>
<path d="M14.0383 13.0606C17.2944 13.0606 20.0848 13.7524 21.2764 14.7349C21.6825 14.0401 21.8973 13.2501 21.8989 12.4454C21.8989 9.19659 18.379 6.20435 14.0383 6.20435C9.69769 6.20435 6.18384 9.19781 6.18384 12.4442C6.18601 13.2497 6.39985 14.0405 6.80393 14.7373C7.99791 13.7537 10.7895 13.0618 14.0383 13.0618" fill="#99D9E8"/>
<path d="M14.0384 13.0813C17.2908 13.0813 20.0764 13.7683 21.2667 14.7446C21.672 14.0553 21.8869 13.2706 21.8892 12.4709C21.8892 9.24403 18.3742 6.27002 14.0384 6.27002C9.70259 6.27002 6.1936 9.24525 6.1936 12.4709C6.19623 13.2716 6.41058 14.0572 6.81491 14.7483C8.00646 13.7756 10.7944 13.085 14.0384 13.085" fill="#9EDBE8"/>
<path d="M14.0384 13.102C17.286 13.102 20.0691 13.7841 21.2558 14.7531C21.6608 14.0694 21.8757 13.2899 21.8783 12.4953C21.8783 9.2939 18.3681 6.33691 14.0396 6.33691C9.71116 6.33691 6.20581 9.2939 6.20581 12.4941C6.2087 13.2891 6.42269 14.0691 6.8259 14.7544C8.01381 13.7817 10.8006 13.102 14.0396 13.102" fill="#A3DEEB"/>
<path d="M14.0383 13.1239C17.2823 13.1239 20.0617 13.8024 21.246 14.7629C21.6498 14.085 21.8644 13.3111 21.8673 12.5221C21.8673 9.34135 18.362 6.40503 14.0383 6.40503C9.71472 6.40503 6.21545 9.34256 6.21545 12.5208C6.219 13.3103 6.43261 14.0845 6.83433 14.7641C8.02223 13.8011 10.8054 13.1239 14.0383 13.1239Z" fill="#A8DEED"/>
<path d="M14.0384 13.1446C17.2762 13.1446 20.0521 13.8182 21.2363 14.7714C21.6391 14.0989 21.8533 13.3303 21.8564 12.5464C21.8564 9.38512 18.3559 6.46704 14.0384 6.46704C9.72084 6.46704 6.22644 9.38512 6.22644 12.5464C6.22938 13.3309 6.44313 14.1002 6.84532 14.7738C8.032 13.8182 10.809 13.1458 14.0384 13.1446Z" fill="#B0E3ED"/>
<path d="M14.0384 13.1677C17.2726 13.1677 20.0436 13.8365 21.2266 14.7836C21.6281 14.1168 21.842 13.3539 21.8455 12.5756C21.8455 9.43989 18.3499 6.54126 14.0384 6.54126C9.72696 6.54126 6.23621 9.44232 6.23621 12.5732C6.24006 13.3524 6.4534 14.1163 6.85387 14.7848C8.03812 13.8365 10.8127 13.169 14.0384 13.1677Z" fill="#B5E3ED"/>
<path d="M14.0384 13.186C17.2678 13.186 20.0363 13.8499 21.2121 14.7897C21.6124 14.1295 21.8262 13.3732 21.8309 12.6012C21.8309 9.48732 18.3378 6.60693 14.0336 6.60693C9.72941 6.60693 6.24231 9.48975 6.24231 12.5987C6.24671 13.3705 6.4597 14.1267 6.85876 14.7873C8.04179 13.8462 10.8128 13.1836 14.0324 13.1823" fill="#BAE5F0"/>
<path d="M14.0384 13.2067C17.2641 13.2067 20.0278 13.8657 21.212 14.7995C21.6118 14.1436 21.8249 13.3911 21.8285 12.6231C21.8285 9.53354 18.3426 6.67139 14.0469 6.67139C9.75127 6.67139 6.26538 9.53475 6.26538 12.6218C6.26714 13.3897 6.47725 14.1428 6.87331 14.8007C8.05514 13.8669 10.8212 13.2079 14.0384 13.2079" fill="#BFE8F2"/>
<path d="M14.0384 13.2274C17.2593 13.2274 20.0193 13.8827 21.195 14.808C21.5951 14.158 21.8088 13.4106 21.8127 12.6474C21.8127 9.57976 18.3304 6.73828 14.0384 6.73828C9.74642 6.73828 6.26782 9.58341 6.26782 12.6474C6.27279 13.4105 6.48548 14.1578 6.88305 14.8092C8.06366 13.8815 10.8273 13.2286 14.0384 13.2286" fill="#C4E8F2"/>
<path d="M14.0384 13.248C17.2555 13.248 20.0107 13.8973 21.1864 14.8165C21.5852 14.1723 21.7985 13.4306 21.8029 12.6729C21.8029 9.63328 18.3255 6.80396 14.0384 6.80396C9.75121 6.80396 6.27991 9.62963 6.27991 12.6729C6.28282 13.43 6.49308 14.1718 6.88784 14.8177C8.06602 13.8973 10.826 13.248 14.0323 13.248" fill="#C9EBF2"/>
<path d="M14.0384 13.2685C17.2495 13.2685 20.0034 13.9117 21.1768 14.826C21.5711 14.1861 21.7815 13.4499 21.7847 12.6983C21.7847 9.67683 18.3122 6.87061 14.0323 6.87061C9.75247 6.87061 6.29089 9.67804 6.29089 12.697C6.29436 13.4494 6.50467 14.1864 6.89883 14.8272C8.07579 13.9129 10.8322 13.2697 14.0348 13.2685" fill="#CFEDF5"/>
<path d="M14.0384 13.2892C17.2459 13.2892 19.9962 13.9287 21.1671 14.8346C21.5612 14.2008 21.7716 13.4701 21.775 12.7238C21.775 9.72304 18.3061 6.93628 14.0336 6.93628C9.76102 6.93628 6.3031 9.7267 6.3031 12.7226C6.30683 13.47 6.51723 14.2018 6.91103 14.837C8.08556 13.9299 10.8383 13.2916 14.0372 13.2904" fill="#D4F0F5"/>
<path d="M14.0383 13.3111C17.2397 13.3111 19.9864 13.9458 21.156 14.8443C21.5495 14.2161 21.7601 13.4906 21.764 12.7494C21.764 9.77414 18.3012 7.00439 14.0335 7.00439C9.76578 7.00439 6.30664 9.77414 6.30664 12.7481C6.30988 13.4903 6.52044 14.2167 6.91457 14.8455C8.08545 13.9458 10.8357 13.3123 14.0298 13.3111" fill="#D9F2F5"/>
<path d="M14.0384 13.3318C17.2373 13.3318 19.9791 13.9616 21.1463 14.8541C21.5398 14.2321 21.7505 13.5121 21.7543 12.7761C21.7543 9.8228 18.2951 7.07129 14.0335 7.07129C9.77191 7.07129 6.31885 9.8228 6.31885 12.7737C6.3229 13.5108 6.53351 14.2319 6.92678 14.8553C8.09888 13.9628 10.8431 13.333 14.0323 13.333" fill="#DEF2F7"/>
<path d="M14.0385 13.3525C17.2325 13.3525 19.9707 13.9774 21.1367 14.8626C21.5299 14.2445 21.7406 13.5281 21.7446 12.7956C21.7446 9.86657 18.2916 7.1333 14.036 7.1333C9.78049 7.1333 6.33472 9.87022 6.33472 12.8029C6.33954 13.5353 6.5502 14.2515 6.94265 14.8699C8.1111 13.9835 10.8529 13.3598 14.0372 13.3585" fill="#E5F5FA"/>
<path d="M14.0384 13.3732C17.2276 13.3732 19.9621 13.9933 21.1256 14.8711C21.5179 14.2603 21.7288 13.5507 21.7336 12.8248C21.7336 9.91767 18.2842 7.20386 14.0359 7.20386C9.78769 7.20386 6.34192 9.91889 6.34192 12.8236C6.34741 13.5502 6.55815 14.2604 6.94985 14.8723C8.11708 13.9933 10.8552 13.3732 14.0359 13.3732" fill="#EBF7FA"/>
<path d="M14.0384 13.3939C17.2228 13.3939 19.9536 14.0103 21.116 14.8796C21.5077 14.2744 21.7186 13.57 21.7239 12.8491C21.7239 9.96389 18.2794 7.26953 14.036 7.26953C9.7926 7.26953 6.35413 9.96511 6.35413 12.8479C6.36021 13.5695 6.57102 14.2744 6.96206 14.8809C8.12686 14.0091 10.8626 13.3939 14.0384 13.3926" fill="#F0FAFC"/>
<path d="M14.0385 13.4109C17.2179 13.4109 19.9463 14.0188 21.1063 14.8845C21.4966 14.2854 21.7076 13.5873 21.7142 12.8723C21.7142 10.0101 18.2745 7.33398 14.0372 7.33398C9.79994 7.33398 6.36633 10.0089 6.36633 12.8698C6.37313 13.5863 6.58401 14.286 6.97427 14.887C8.13785 14.0213 10.865 13.4109 14.0409 13.4109" fill="#F5FAFC"/>
<path d="M14.0384 13.4352C17.213 13.4352 19.9378 14.0432 21.0977 14.8943C21.4877 14.3 21.6987 13.6062 21.7057 12.8954C21.7057 10.0563 18.2721 7.39844 14.0457 7.39844C9.81935 7.39844 6.38574 10.0575 6.38574 12.8942C6.3926 13.6053 6.60361 14.2996 6.99368 14.8943C8.15604 14.0359 10.8844 13.4352 14.0457 13.4352" fill="#FAFCFF"/>
<path d="M14.0384 13.4559C17.2106 13.4559 19.9293 14.0578 21.0904 14.9077C21.4797 14.3194 21.6908 13.6312 21.6984 12.9258C21.6984 10.1074 18.2684 7.46899 14.0384 7.46899C9.80842 7.46899 6.3894 10.1111 6.3894 12.9246C6.39564 13.6309 6.60684 14.3203 6.99734 14.9089C8.15727 14.0578 10.8796 13.4571 14.0421 13.4559" fill="white"/>
</g>
<path d="M14.0007 10.6472C11.2261 10.6472 8.65087 11.119 6.53162 11.9166C7.17608 13.3586 8.22424 14.5833 9.54954 15.4426C10.8748 16.302 12.4206 16.7592 14.0001 16.7592C15.5796 16.7592 17.1253 16.302 18.4506 15.4426C19.7759 14.5833 20.8241 13.3586 21.4685 11.9166C19.3444 11.119 16.768 10.6472 14.0007 10.6472Z" fill="#0869AB"/>
<path d="M24.4377 23.9891C24.1678 23.9891 23.9052 23.9891 23.645 23.9891C23.5927 23.9891 23.5903 23.9538 23.5793 23.9234L22.9835 22.2285C22.967 22.1755 22.9437 22.1248 22.9142 22.0777C22.7918 22.7132 22.6703 23.3491 22.5495 23.9854H21.7324C21.7823 23.7313 21.8309 23.4796 21.8795 23.2292C22.0376 22.4186 22.1949 21.6044 22.3513 20.7865C22.3622 20.7257 22.3866 20.7111 22.4449 20.7123C22.6711 20.7123 22.8972 20.7123 23.1234 20.7123C23.1462 20.7091 23.1694 20.7147 23.1881 20.7281C23.2069 20.7414 23.2199 20.7615 23.2243 20.7841C23.4286 21.3733 23.6336 21.9626 23.8395 22.5519C23.848 22.5775 23.8602 22.603 23.8772 22.6468C23.9088 22.4826 23.9392 22.3391 23.9672 22.1945L24.242 20.778C24.2481 20.7415 24.2541 20.7135 24.304 20.7135C24.5472 20.7135 24.7903 20.7135 25.0335 20.7135C25.0461 20.7128 25.0586 20.7128 25.0712 20.7135L24.4377 23.9891Z" fill="#0062AC"/>
<path d="M16.9626 21.9779C17.1201 21.9861 17.278 21.9861 17.4356 21.9779C17.5217 21.9643 17.6024 21.9272 17.669 21.8709C17.7193 21.8318 17.7558 21.7778 17.7735 21.7167C17.7912 21.6555 17.7891 21.5903 17.7675 21.5305C17.7262 21.4089 17.607 21.3906 17.4939 21.387C17.3808 21.3833 17.2507 21.387 17.1292 21.387C17.0915 21.387 17.0696 21.3943 17.0623 21.4368C17.0295 21.6192 16.9942 21.8016 16.9589 21.984M16.6975 23.3214C16.7125 23.3223 16.7275 23.3223 16.7425 23.3214C16.8909 23.3214 17.0392 23.3214 17.1863 23.3214C17.2316 23.3201 17.2765 23.3131 17.3201 23.3008C17.415 23.278 17.4988 23.2222 17.5565 23.1433C17.6142 23.0645 17.642 22.9678 17.635 22.8703C17.6361 22.8247 17.6231 22.7798 17.5976 22.7419C17.5721 22.704 17.5354 22.6749 17.4927 22.6588C17.4396 22.6371 17.3834 22.624 17.3261 22.6199C17.1802 22.6126 17.0343 22.6199 16.8896 22.6126C16.8446 22.6126 16.8288 22.6308 16.8215 22.6709C16.7924 22.8314 16.7608 22.9907 16.7291 23.15L16.6975 23.3202M18.0447 22.2053C18.0556 22.2138 18.0593 22.2199 18.0666 22.2211C18.213 22.2825 18.332 22.3951 18.4014 22.5378C18.4707 22.6806 18.4857 22.8438 18.4435 22.9968C18.4167 23.1736 18.3482 23.3416 18.2438 23.4868C18.1394 23.632 18.002 23.7504 17.8429 23.8321C17.6343 23.9345 17.4052 23.9881 17.1729 23.9889C16.7097 23.9962 16.2477 23.9889 15.7844 23.9889C15.7731 23.9896 15.7617 23.9896 15.7504 23.9889C15.7929 23.7689 15.8343 23.55 15.872 23.3312C16.0341 22.4849 16.1982 21.6387 16.3644 20.7924C16.3729 20.7462 16.3802 20.717 16.441 20.717C16.869 20.717 17.2921 20.717 17.7237 20.7243C17.9054 20.7219 18.0857 20.7562 18.2538 20.8252C18.3767 20.8741 18.4784 20.9648 18.5407 21.0815C18.603 21.1981 18.622 21.3331 18.5943 21.4624C18.5812 21.6185 18.5259 21.7681 18.4342 21.8951C18.3425 22.0222 18.218 22.1218 18.0739 22.1834C18.0629 22.1834 18.0544 22.1968 18.0423 22.2053" fill="#0062AC"/>
<path d="M27.7729 23.9891C27.4786 23.9891 27.1941 23.9891 26.9096 23.9891C26.8877 23.9891 26.8573 23.9575 26.8476 23.9331C26.6859 23.5392 26.5278 23.1428 26.3685 22.7477C26.36 22.7258 26.3491 22.7039 26.3333 22.6674C26.2117 22.789 26.0901 22.9106 25.9758 23.0322C25.9471 23.0875 25.9313 23.1486 25.9296 23.2109C25.8822 23.4541 25.8384 23.6973 25.7898 23.9344C25.7898 23.9563 25.757 23.9879 25.7399 23.9891C25.4834 23.9891 25.2268 23.9891 24.9606 23.9891C24.9885 23.842 25.0153 23.7009 25.042 23.5599C25.2212 22.6358 25.4003 21.711 25.5795 20.7853C25.5904 20.7293 25.6098 20.7111 25.667 20.7123C25.8907 20.7123 26.1144 20.7123 26.3382 20.7123H26.416L26.185 21.8869L26.2603 21.8151C26.6056 21.4649 26.9522 21.1148 27.2963 20.7634C27.3127 20.7451 27.3331 20.7308 27.3558 20.7213C27.3785 20.7118 27.403 20.7075 27.4276 20.7087C27.6866 20.7087 27.9455 20.7087 28.2045 20.7087C28.2288 20.7087 28.2531 20.7087 28.2775 20.7087L28.2981 20.7354C28.273 20.7468 28.2494 20.7611 28.2276 20.778C27.8223 21.1768 27.417 21.576 27.0117 21.9756C26.9914 21.9911 26.9775 22.0136 26.9728 22.0388C26.9681 22.0639 26.9728 22.09 26.9862 22.1118C27.2375 22.7051 27.4871 23.2989 27.7352 23.893C27.7461 23.9186 27.7558 23.9441 27.7704 23.9806" fill="#0062AC"/>
<path d="M20.4801 22.6517C20.4558 22.2955 20.4315 21.9429 20.4084 21.5903H20.395L19.9087 22.6529L20.4801 22.6517ZM21.0686 20.7063C21.1963 21.8006 21.3227 22.8827 21.4516 23.9758H20.5701C20.5518 23.7594 20.5348 23.5429 20.5178 23.318H20.4327C20.1895 23.318 19.9342 23.318 19.6861 23.318C19.6591 23.3154 19.6319 23.3226 19.6097 23.3382C19.5874 23.3538 19.5714 23.3768 19.5646 23.4031C19.4892 23.5806 19.4089 23.7557 19.3214 23.932C19.3117 23.9527 19.2873 23.9831 19.2691 23.9831C18.9907 23.9831 18.7122 23.9831 18.4253 23.9831C18.4387 23.9539 18.4472 23.9308 18.4581 23.9089C18.985 22.8657 19.5119 21.8225 20.0388 20.7793C20.0466 20.7561 20.062 20.7363 20.0826 20.7231C20.1031 20.7098 20.1275 20.7039 20.1518 20.7063C20.4315 20.7063 20.7099 20.7063 20.9896 20.7063H21.0686Z" fill="#0062AC"/>
<path d="M3.51872 20.5239L2.77461 22.4644L2.47186 20.5239H1.82015L0.784234 22.4499L0.781803 20.5239H0.00121587L0 23.949H0.801256L1.89432 21.9343L2.22139 23.949H3.01535L4.33335 20.5239H3.51872Z" fill="#0062AC"/>
<path d="M5.3182 23.3227C5.26981 23.327 5.22107 23.3201 5.17575 23.3026C5.13043 23.2851 5.08973 23.2574 5.05679 23.2217C4.97168 23.1184 4.89508 22.8691 5.0118 22.2648C5.15649 21.5134 5.41182 21.1499 5.79482 21.1499C5.84265 21.1458 5.89078 21.1528 5.93549 21.1703C5.98019 21.1878 6.02026 21.2153 6.05258 21.2508C6.13891 21.3554 6.21672 21.6046 6.1 22.2089C5.95531 22.9591 5.69998 23.3227 5.31698 23.3227M5.86656 20.4739C4.93034 20.4739 4.34307 21.0575 4.12179 22.2089C4.0002 22.8679 4.0537 23.3348 4.30052 23.6351C4.50114 23.8783 4.81848 23.9999 5.24525 23.9999C6.18146 23.9999 6.76873 23.4163 6.99002 22.2661C7.1116 21.6071 7.0581 21.1414 6.81007 20.8398C6.60945 20.5967 6.29332 20.4751 5.86777 20.4751" fill="#0062AC"/>
<path d="M8.42965 23.3227C8.38127 23.3269 8.33256 23.32 8.28725 23.3025C8.24195 23.285 8.20124 23.2574 8.16824 23.2217C8.08313 23.1184 8.00653 22.8691 8.12326 22.2648C8.26794 21.5134 8.52449 21.1499 8.90627 21.1499C8.95429 21.1457 9.00264 21.1526 9.04755 21.1701C9.09246 21.1876 9.13274 21.2152 9.16526 21.2508C9.25158 21.3554 9.3294 21.6046 9.21267 22.2089C9.06798 22.9591 8.81265 23.3227 8.42965 23.3227ZM8.97922 20.4739C8.04301 20.4739 7.45575 21.0575 7.23446 22.2089C7.11287 22.8679 7.16637 23.3348 7.41319 23.6351C7.61381 23.8783 7.93115 23.9999 8.35792 23.9999C9.29414 23.9999 9.8814 23.4163 10.1039 22.2661C10.2255 21.6071 10.172 21.1414 9.92274 20.8398C9.72212 20.5967 9.40599 20.4751 8.98044 20.4751" fill="#0062AC"/>
<path d="M13.5994 20.5239L12.9392 23.949H13.845L14.5052 20.5239H13.5994Z" fill="#0062AC"/>
<path d="M11.5191 21.156C11.7392 21.156 12.2645 20.9809 12.1745 21.6034C12.0845 22.226 11.3307 22.1457 11.3307 22.1457L11.5191 21.156ZM12.2754 22.5932C12.6912 22.3585 12.9672 21.9013 12.9672 21.3116C12.9672 20.4386 11.9264 20.5238 11.9264 20.5238H10.848L10.1282 23.9282H10.9343L11.169 22.7634H11.4839C11.5494 22.7717 11.6098 22.803 11.6544 22.8518C11.6989 22.9006 11.7247 22.9636 11.727 23.0297C11.7587 23.336 11.8049 23.9428 11.8049 23.9428H12.6134C12.6134 23.9428 12.5417 23.1099 12.521 22.9847C12.5168 22.9035 12.4923 22.8248 12.4499 22.7555C12.4074 22.6863 12.3482 22.6288 12.2778 22.5883" fill="#0062AC"/>
</g>
<defs>
<clipPath id="clip0_45_4291">
<rect width="28.2969" height="24" fill="white"/>
</clipPath>
</defs>
</svg>
